<svg id="Layer_1" data-name="Layer 1" xmlns="http://www.w3.org/2000/svg" viewBox="0 0 104.94 174.18"><defs><style>.cls-1,.cls-2,.cls-4,.cls-7,.cls-9{fill:#ffeb3b;}.cls-2{font-size:14px;}.cls-2,.cls-9{font-family:Futura-CondensedExtraBold, Futura;font-weight:700;}.cls-3{letter-spacing:0em;}.cls-4{font-size:10px;}.cls-4,.cls-7{font-family:Futura-CondensedMedium, Futura;}.cls-5{letter-spacing:-0.01em;}.cls-6{letter-spacing:0.01em;}.cls-7{font-size:7px;}.cls-8{letter-spacing:-0.01em;}.cls-9{font-size:8px;}</style></defs><title>runes</title><path class="cls-1" d="M93.14,14.45l1.1-5.18a5.11,5.11,0,0,1-.59-.06l.19-.89a1.51,1.51,0,0,0,1-.39h1L94.4,14.45Z"/><path class="cls-1" d="M99.17,9H97.63c-.12.46-.24,1-.33,1.34a1,1,0,0,1,.76-.29c.84,0,1.07.63.85,1.67l-.15.76c-.25,1.2-.54,2-1.92,2s-1.55-.73-1.37-1.61l0-.22h1.22l-.06.3c-.06.35,0,.57.27.57s.39-.28.51-.85l.2-1c.09-.43,0-.59-.25-.59s-.37.17-.48.56l-1.12-.11C96,10.9,96.47,9,96.72,8H99.5Z"/><polygon class="cls-1" points="83.35 40.99 72.28 40.99 57.56 54.65 57.56 40.99 48.56 40.99 48.56 54.82 32.98 40.99 22.08 40.99 48.56 65.54 48.56 111.99 57.56 111.99 57.56 65.54 83.35 40.99"/><text class="cls-2" transform="translate(34.92 134.99)">A<tspan class="cls-3" x="8.43" y="0">L</tspan><tspan x="14.25" y="0">GIZ</tspan></text><text class="cls-4" transform="translate(47.14 150.45)">ELK</text><text class="cls-4" transform="translate(33.44 29.93)">P<tspan class="cls-5" x="3.96" y="0">R</tspan><tspan class="cls-6" x="8.09" y="0">O</tspan><tspan x="12.94" y="0">TECTION</tspan></text><text class="cls-7" transform="translate(6.03 167.78)">HEIM<tspan class="cls-8" x="11.34" y="0">D</tspan><tspan x="14.55" y="0">ALLR</tspan></text><text class="cls-9" transform="translate(89.76 167.45)">VII</text><path class="cls-1" d="M6.41,14.85,9.2,7.6h.68l-2.8,7.25Z"/><path class="cls-1" d="M9.67,13.58l2.05-3.31H10.38l.23-1.08h2.78l-.19.88c-.14.24-1.47,2.42-2,3.3h1.47l-.32,1.08H9.49Z"/><path class="cls-1" d="M13,14.85,15.81,7.6h.68l-2.8,7.25Z"/></svg>