<svg id="Layer_1" data-name="Layer 1" xmlns="http://www.w3.org/2000/svg" viewBox="0 0 104.94 174.18"><defs><style>.cls-1,.cls-2,.cls-3,.cls-6,.cls-7{fill:#ffeb3b;}.cls-2{font-size:14px;}.cls-2,.cls-7{font-family:Futura-CondensedExtraBold, Futura;font-weight:700;}.cls-3{font-size:10px;}.cls-3,.cls-6{font-family:Futura-CondensedMedium, Futura;}.cls-4{letter-spacing:0em;}.cls-5{letter-spacing:0em;}.cls-6{font-size:7px;}.cls-7{font-size:8px;}</style></defs><title>runes</title><polygon class="cls-1" points="70.93 56.84 70.93 68.09 44.93 52.44 44.93 60.68 70.93 76.32 70.93 87.57 44.93 71.93 44.93 113.85 34.93 113.85 34.93 40.85 44.93 40.85 70.93 56.84"/><text class="cls-2" transform="translate(32.67 135.84)">ANSUZ</text><text class="cls-3" transform="translate(44.98 151.31)">ÆSIR</text><text class="cls-3" transform="translate(31.13 30.79)">BENE<tspan class="cls-4" x="16.06" y="0">V</tspan><tspan x="19.77" y="0">OLE</tspan><tspan class="cls-5" x="31.49" y="0">N</tspan><tspan x="36.16" y="0">CE</tspan></text><text class="cls-6" transform="translate(5.25 167.42)">FREYR</text><path class="cls-1" d="M96.1,14.09l.32-1.51H94.68l.21-1,2-4h1.76l-.84,4h.42l-.29,1h-.35l-.32,1.51Zm.73-3.4c.16-.71.35-1.47.48-2h0c-.38.87-.85,2.09-1.24,2.91h.6Z"/><text class="cls-7" transform="translate(91.46 167.09)">IV</text><path class="cls-1" d="M5.63,14.49,8.42,7.25H9.1L6.3,14.49Z"/><path class="cls-1" d="M12.25,12.71c-.09.39-.25,1.2-.28,1.38H10.75c0-.1,0-.25.05-.4a1.08,1.08,0,0,1-.94.49c-.8,0-1-.73-.78-1.66.26-1.21.84-1.56,2.11-1.72l.21,0,.12-.56c.07-.34.05-.52-.19-.52s-.31.19-.39.51l0,.2H9.68l0-.13c.18-.82.48-1.52,1.71-1.52s1.56.48,1.34,1.52Zm-1-1-.14,0a.83.83,0,0,0-.74.77c-.07.33-.06.63.22.63s.41-.27.52-.75Z"/><path class="cls-1" d="M12.84,14.49l2.79-7.24h.68l-2.8,7.24Z"/></svg>