<svg id="Layer_1" data-name="Layer 1" xmlns="http://www.w3.org/2000/svg" viewBox="0 0 104.94 174.18"><defs><style>.cls-1,.cls-11,.cls-12,.cls-2,.cls-5{fill:#ffeb3b;}.cls-2{font-size:14px;}.cls-12,.cls-2{font-family:Futura-CondensedExtraBold, Futura;font-weight:700;}.cls-3{letter-spacing:-0.02em;}.cls-4{letter-spacing:-0.02em;}.cls-5{font-size:10px;}.cls-11,.cls-5{font-family:Futura-CondensedMedium, Futura;}.cls-6{letter-spacing:-0.01em;}.cls-7{letter-spacing:-0.02em;}.cls-8{letter-spacing:0em;}.cls-9{letter-spacing:0.04em;}.cls-10{letter-spacing:0em;}.cls-11{font-size:7px;}.cls-12{font-size:8px;}</style></defs><title>runes</title><path class="cls-1" d="M52.45,69.63l-24-31v74.72l24-31,24,31V38.6Zm-16,20.91V61.33L47.8,75.93Zm33,0L58.1,75.93l11.35-14.6Z"/><text class="cls-2" transform="translate(31.51 134.45)"><tspan class="cls-3">D</tspan><tspan x="8.24" y="0">A</tspan><tspan class="cls-4" x="16.67" y="0">G</tspan><tspan x="25.31" y="0">AZ</tspan></text><text class="cls-5" transform="translate(42.89 149.92)"><tspan class="cls-6">D</tspan><tspan class="cls-7" x="4.59" y="0">A</tspan><tspan x="8.52" y="0">WN</tspan></text><text class="cls-5" transform="translate(38.39 29.4)"><tspan class="cls-8">B</tspan><tspan x="4.15" y="0">A</tspan><tspan class="cls-9" x="8.22" y="0">L</tspan><tspan x="11.93" y="0">A</tspan><tspan class="cls-10" x="16.01" y="0">N</tspan><tspan x="20.68" y="0">CE</tspan></text><text class="cls-11" transform="translate(6.09 167.2)">TÝR</text><path class="cls-1" d="M91.69,13.88l0-.18a6,6,0,0,1,1.56-2.86c.93-1,1.08-1.19,1.22-1.87.1-.45.06-.67-.22-.67s-.36.14-.47.63l-.08.38H92.58L92.65,9c.15-.76.42-1.69,1.73-1.69s1.54.84,1.33,1.87-.45,1.17-1.37,2.19a5.1,5.1,0,0,0-1,1.44H95.1l-.35,1.08Z"/><path class="cls-1" d="M96.31,9l0-.23C96.52,8,96.83,7.3,98,7.3S99.54,8,99.3,9.16c-.17.81-.54,1.08-1,1.2v0c.45.26.67.71.47,1.7S98.26,14,96.92,14s-1.54-.75-1.37-1.66l0-.18H96.8l0,.26c-.08.38-.06.64.25.64s.39-.27.53-.9c.21-1,.06-1.22-.47-1.22h-.24L97,9.84h.19c.58,0,.72-.14.86-.75s.12-.82-.16-.82-.3.16-.37.47L97.49,9Z"/><text class="cls-12" transform="translate(89.82 166.87)">VII</text><path class="cls-1" d="M6.47,14.28,9.26,7h.68l-2.8,7.25Z"/><path class="cls-1" d="M14.38,6.91,13.21,12.4c-.16.75-.24,1.19-.29,1.48H11.7a2.84,2.84,0,0,1,.05-.42,1.08,1.08,0,0,1-1,.5c-.84,0-1-.77-.77-1.72l.44-2.08c.18-.83.49-1.63,1.43-1.63a.87.87,0,0,1,.81.38l.42-2Zm-2.67,3.27-.45,2.1c-.06.3-.06.61.23.61s.43-.24.52-.71l.41-1.9c.1-.46.08-.71-.25-.71S11.8,9.79,11.71,10.18Z"/><path class="cls-1" d="M13.8,14.28,16.59,7h.68l-2.8,7.25Z"/></svg>