<svg id="Layer_1" data-name="Layer 1" xmlns="http://www.w3.org/2000/svg" viewBox="0 0 104.94 174.18"><defs><style>.cls-1,.cls-2,.cls-3,.cls-6,.cls-7{fill:#ffeb3b;}.cls-2{font-size:14px;}.cls-2,.cls-7{font-family:Futura-CondensedExtraBold, Futura;font-weight:700;}.cls-3{font-size:10px;}.cls-3,.cls-6{font-family:Futura-CondensedMedium, Futura;}.cls-4{letter-spacing:-0.01em;}.cls-5{letter-spacing:0.01em;}.cls-6{font-size:7px;}.cls-7{font-size:8px;}</style></defs><title>runes</title><polygon class="cls-1" points="67.17 39.53 52.33 48.44 36.77 39.53 26.18 39.53 26.18 113.53 36.76 113.53 36.84 50.17 52.18 59.47 67.18 50.17 67.18 113.53 77.18 113.53 77.18 39.53 67.17 39.53"/><text class="cls-2" transform="translate(30.4 135.02)">EHWAZ</text><text class="cls-3" transform="translate(42.13 29.97)">T<tspan class="cls-4" x="3.27" y="0">R</tspan><tspan x="7.36" y="0">U</tspan><tspan class="cls-5" x="11.99" y="0">S</tspan><tspan x="15.84" y="0">T</tspan></text><text class="cls-3" transform="translate(41.16 150.49)">HORSE</text><text class="cls-6" transform="translate(4.99 167.2)">TÝR</text><path class="cls-1" d="M92.07,13.88l1.1-5.19a5.39,5.39,0,0,1-.6,0l.19-.89a1.49,1.49,0,0,0,1-.39h.95l-1.38,6.52Z"/><path class="cls-1" d="M95.66,12.23l0,.17c-.07.35,0,.57.23.57s.38-.21.5-.8l.23-1.09a1,1,0,0,1-.81.32c-.84,0-1.08-.69-.89-1.61l.19-.87c.2-1,.65-1.62,1.77-1.62,1.27,0,1.63.76,1.38,1.92L97.64,12c-.26,1.24-.58,2-1.92,2s-1.44-.92-1.31-1.6l0-.13Zm.7-3.47-.21,1c-.08.38-.07.61.24.61s.39-.24.48-.68l.19-.91c.06-.28,0-.52-.27-.52S96.43,8.45,96.36,8.76Z"/><text class="cls-7" transform="translate(90.94 166.87)">III</text><path class="cls-1" d="M5.38,14.28,8.16,7h.68L6.05,14.28Z"/><path class="cls-1" d="M10.31,11.57l-.17.83c-.08.34,0,.57.23.57s.36-.26.42-.53l0-.23h1.23l0,.15c-.17.89-.52,1.6-1.77,1.6C8.86,14,8.74,13,9,12l.38-1.76c.2-.93.56-1.72,1.82-1.72s1.53.83,1.32,1.86l-.25,1.17Zm.88-.91.12-.58c.07-.35.06-.6-.23-.6s-.37.17-.45.59l-.13.59Z"/><path class="cls-1" d="M12.5,14.28,15.29,7H16l-2.8,7.25Z"/></svg>