<svg id="Layer_1" data-name="Layer 1" xmlns="http://www.w3.org/2000/svg" viewBox="0 0 104.94 174.18"><defs><style>.cls-1,.cls-2,.cls-3,.cls-8,.cls-9{fill:#ffeb3b;}.cls-2{font-size:14px;}.cls-2,.cls-9{font-family:Futura-CondensedExtraBold, Futura;font-weight:700;}.cls-3{font-size:10px;}.cls-3,.cls-8{font-family:Futura-CondensedMedium, Futura;}.cls-4{letter-spacing:-0.01em;}.cls-5{letter-spacing:0.04em;}.cls-6{letter-spacing:0.04em;}.cls-7{letter-spacing:-0.02em;}.cls-8{font-size:7px;}.cls-9{font-size:8px;}</style></defs><title>runes</title><polygon class="cls-1" points="75.14 45.83 66.71 40.63 52.66 66.64 38.61 40.63 30.18 45.83 47.04 77.05 30.18 108.27 38.61 113.48 52.66 87.47 66.71 113.48 75.14 108.27 58.28 77.05 75.14 45.83"/><text class="cls-2" transform="translate(36.28 135.88)">GEBŌ</text><text class="cls-3" transform="translate(21.72 151.01)">GIFT &amp; GENE<tspan class="cls-4" x="39.48" y="0">R</tspan><tspan x="43.61" y="0">OSI</tspan><tspan class="cls-5" x="54.3" y="0">T</tspan><tspan x="58.01" y="0">Y</tspan></text><text class="cls-3" transform="translate(30.19 30.49)">RE<tspan class="cls-6" x="7.85" y="0">L</tspan><tspan class="cls-7" x="11.56" y="0">A</tspan><tspan x="15.47" y="0">TIONSHIP</tspan></text><text class="cls-8" transform="translate(5.98 167.42)">FREYR</text><path class="cls-1" d="M99.77,7.61l-.21,1A19.45,19.45,0,0,0,97,14.09H95.65a18.8,18.8,0,0,1,2.61-5.41H96.59l.23-1.07Z"/><text class="cls-9" transform="translate(89.71 167.09)">VII</text><path class="cls-1" d="M6.36,14.49,9.15,7.25h.68L7,14.49Z"/><path class="cls-1" d="M12.88,13.62c-.28,1.29-.4,2.26-2,2.26-1.37,0-1.55-.72-1.41-1.42v0h1.26v.05c0,.19,0,.43.26.43s.41-.39.54-1l.1-.47a1,1,0,0,1-.9.47c-.92,0-1-.82-.82-1.66l.4-1.89c.16-.71.45-1.65,1.42-1.65a.75.75,0,0,1,.81.49,3.45,3.45,0,0,1,.15-.41h1.2c-.09.38-.19.83-.32,1.45ZM11.6,10.36l-.41,1.9c-.08.4,0,.63.25.63s.41-.26.52-.78l.36-1.72c.07-.32.07-.61-.25-.61S11.68,10,11.6,10.36Z"/><path class="cls-1" d="M13.68,14.49l2.79-7.24h.68l-2.8,7.24Z"/></svg>