<svg id="Layer_1" data-name="Layer 1" xmlns="http://www.w3.org/2000/svg" viewBox="0 0 104.94 174.18"><defs><style>.cls-1,.cls-11,.cls-12,.cls-2,.cls-5{fill:#ffeb3b;}.cls-2{font-size:14px;}.cls-12,.cls-2{font-family:Futura-CondensedExtraBold, Futura;font-weight:700;}.cls-3{letter-spacing:-0.02em;}.cls-4{letter-spacing:0.03em;}.cls-5{font-size:10px;}.cls-11,.cls-5{font-family:Futura-CondensedMedium, Futura;}.cls-6{letter-spacing:0.01em;}.cls-7{letter-spacing:0.01em;}.cls-8{letter-spacing:-0.01em;}.cls-9{letter-spacing:-0.01em;}.cls-10{letter-spacing:-0.01em;}.cls-11{font-size:7px;}.cls-12{font-size:8px;}</style></defs><title>runes</title><path class="cls-1" d="M66.13,41V70.44l-31-8.35V41h-8v71h8V83.09l31,8.35V112h9V41Zm-31,33.27V70.91l31,8.35v3.36Z"/><text class="cls-2" transform="translate(22.72 134.99)">HA<tspan class="cls-3" x="16.97" y="0">G</tspan><tspan x="25.61" y="0">A</tspan><tspan class="cls-4" x="34.04" y="0">L</tspan><tspan x="40.25" y="0">AZ</tspan></text><text class="cls-5" transform="translate(32.84 150.45)">HAIL <tspan class="cls-6" x="16.32" y="0">S</tspan><tspan class="cls-7" x="20.17" y="0">T</tspan><tspan x="23.51" y="0">ONE</tspan></text><text class="cls-5" transform="translate(25.02 29.93)"><tspan class="cls-8">C</tspan><tspan x="3.75" y="0">ONF</tspan><tspan class="cls-9" x="16.71" y="0">R</tspan><tspan x="20.83" y="0">ON</tspan><tspan class="cls-10" x="30.29" y="0">T</tspan><tspan class="cls-3" x="33.42" y="0">A</tspan><tspan x="37.33" y="0">TION</tspan></text><text class="cls-11" transform="translate(4.95 167.78)">HEIM<tspan class="cls-8" x="11.34" y="0">D</tspan><tspan x="14.55" y="0">ALLR</tspan></text><path class="cls-1" d="M95.62,12.8l0,.17c-.07.35,0,.58.23.58s.38-.22.5-.8l.23-1.1a1,1,0,0,1-.81.33c-.84,0-1.08-.7-.89-1.61L95,9.5c.2-.95.65-1.62,1.77-1.62s1.63.75,1.38,1.92l-.59,2.77c-.26,1.24-.59,2-1.92,2s-1.44-.92-1.31-1.6l0-.14Zm.7-3.47-.21,1c-.08.38-.07.61.24.61s.39-.25.48-.69l.19-.9c.06-.29,0-.53-.27-.53S96.39,9,96.32,9.33Z"/><text class="cls-12" transform="translate(95.85 167.45)">I</text><path class="cls-1" d="M5.33,14.85,8.12,7.6H8.8L6,14.85Z"/><path class="cls-1" d="M11.35,7.49l-.43,2a1.25,1.25,0,0,1,1-.43c.78,0,1,.59.81,1.34l-.85,4H10.58l.8-3.76c.07-.34,0-.55-.24-.55s-.39.18-.48.64l-.78,3.67H8.62l1.47-7Z"/><path class="cls-1" d="M12.74,14.85,15.53,7.6h.68l-2.8,7.25Z"/></svg>