<svg id="Layer_1" data-name="Layer 1" xmlns="http://www.w3.org/2000/svg" viewBox="0 0 104.94 174.18"><defs><style>.cls-1,.cls-2,.cls-5,.cls-7,.cls-8,.cls-9{fill:#ffeb3b;}.cls-2{font-size:14px;}.cls-2,.cls-8{font-family:Futura-CondensedExtraBold, Futura;font-weight:700;}.cls-3{letter-spacing:0.01em;}.cls-4{letter-spacing:-0.01em;}.cls-5,.cls-9{font-size:10px;}.cls-5,.cls-7{font-family:Futura-CondensedMedium, Futura;}.cls-6{letter-spacing:0.01em;}.cls-7{font-size:7px;}.cls-8{font-size:8px;}.cls-9{font-family:MyriadPro-Regular, Myriad Pro;}.cls-10{font-size:9px;}</style></defs><title>runes</title><path class="cls-1" d="M76.89,75.94,58.39,61.88l18.5-13.73V39.21L52.82,57.63,28.66,39.21v9l18.52,13.7-18.38,14h0L47.21,90,28.66,103.86v8.85L52.82,94.24l24.07,18.38v-9.26L58.54,90m-5.72-4.18L39.4,76l13.42-9.85,13.29,9.83Z"/><text class="cls-2" transform="translate(26.57 134.45)">I<tspan class="cls-3" x="4.33" y="0">N</tspan><tspan class="cls-4" x="13.36" y="0">G</tspan><tspan x="22.1" y="0">WAZ</tspan></text><text class="cls-5" transform="translate(42.3 149.92)">YN<tspan class="cls-6" x="8.54" y="0">G</tspan><tspan x="13.27" y="0">VI</tspan></text><text class="cls-5" transform="translate(35.87 29.4)">HARMONY</text><text class="cls-7" transform="translate(5.19 167.2)">TÝR</text><path class="cls-1" d="M90.83,13.88l0-.18a6,6,0,0,1,1.56-2.86c.93-1,1.08-1.19,1.22-1.87.09-.45,0-.67-.22-.67s-.36.14-.47.63l-.08.38H91.72L91.79,9c.15-.76.42-1.69,1.73-1.69s1.54.84,1.32,1.87-.44,1.17-1.36,2.19a5.1,5.1,0,0,0-1,1.44h1.79l-.36,1.08Z"/><path class="cls-1" d="M94.48,13.88l0-.18a5.86,5.86,0,0,1,1.56-2.86C97,9.84,97.15,9.65,97.3,9c.09-.45,0-.67-.23-.67s-.36.14-.46.63l-.08.38H95.37L95.43,9c.16-.76.43-1.69,1.73-1.69s1.55.84,1.33,1.87-.45,1.17-1.37,2.19a5,5,0,0,0-1,1.44h1.79l-.36,1.08Z"/><text class="cls-8" transform="translate(91.39 166.87)">VI</text><text class="cls-9" transform="translate(5.58 13.88)">/<tspan class="cls-10" x="3.43" y="0">ŋ</tspan><tspan x="8.42" y="0">/</tspan></text></svg>