<svg id="Layer_1" data-name="Layer 1" xmlns="http://www.w3.org/2000/svg" viewBox="0 0 104.94 174.18"><defs><style>.cls-1,.cls-11,.cls-12,.cls-2,.cls-4{fill:#ffeb3b;}.cls-2{font-size:14px;}.cls-12,.cls-2{font-family:Futura-CondensedExtraBold, Futura;font-weight:700;}.cls-3{letter-spacing:-0.01em;}.cls-4{font-size:10px;}.cls-11,.cls-4{font-family:Futura-CondensedMedium, Futura;}.cls-5{letter-spacing:-0.01em;}.cls-6{letter-spacing:0.01em;}.cls-7{letter-spacing:-0.01em;}.cls-8{letter-spacing:0em;}.cls-9{letter-spacing:0.01em;}.cls-10{letter-spacing:-0.02em;}.cls-11{font-size:7px;}.cls-12{font-size:8px;}</style></defs><title>runes</title><rect class="cls-1" x="47" y="39.46" width="10" height="73"/><text class="cls-2" transform="translate(42.46 134.45)">I<tspan class="cls-3" x="4.33" y="0">S</tspan><tspan x="10.64" y="0">A</tspan></text><text class="cls-4" transform="translate(42.24 149.92)">F<tspan class="cls-5" x="3.5" y="0">R</tspan><tspan x="7.62" y="0">O</tspan><tspan class="cls-6" x="12.4" y="0">S</tspan><tspan x="16.25" y="0">T</tspan></text><text class="cls-4" transform="translate(32.34 29.4)"><tspan class="cls-6">S</tspan><tspan class="cls-7" x="3.85" y="0">T</tspan><tspan class="cls-8" x="6.98" y="0">A</tspan><tspan x="11.03" y="0">G</tspan><tspan class="cls-9" x="15.69" y="0">N</tspan><tspan class="cls-10" x="20.51" y="0">A</tspan><tspan x="24.42" y="0">TION</tspan></text><text class="cls-11" transform="translate(5.82 167.2)">HEIM<tspan class="cls-3" x="11.34" y="0">D</tspan><tspan x="14.55" y="0">ALLR</tspan></text><path class="cls-1" d="M94.33,13.88l1.1-5.18a5.29,5.29,0,0,1-.6-.06l.2-.89a1.54,1.54,0,0,0,1-.39h1l-1.39,6.52Z"/><path class="cls-1" d="M96.69,13.88l1.1-5.18a5.11,5.11,0,0,1-.59-.06l.19-.89a1.51,1.51,0,0,0,1-.39h1L98,13.88Z"/><text class="cls-12" transform="translate(91.77 166.88)">III</text><path class="cls-1" d="M6.2,14.28,9,7h.68l-2.8,7.25Z"/><path class="cls-1" d="M10.6,8.61h1.26l-1.12,5.27H9.48ZM11,6.92h1.25L12,8.08H10.72Z"/><path class="cls-1" d="M12.89,14.28,15.68,7h.68l-2.8,7.25Z"/></svg>