<svg id="Layer_1" data-name="Layer 1" xmlns="http://www.w3.org/2000/svg" viewBox="0 0 104.94 174.18"><defs><style>.cls-1,.cls-10,.cls-2,.cls-4,.cls-9{fill:#ffeb3b;}.cls-2{font-size:14px;}.cls-10,.cls-2{font-family:Futura-CondensedExtraBold, Futura;font-weight:700;}.cls-3{letter-spacing:0em;}.cls-4{font-size:10px;}.cls-4,.cls-9{font-family:Futura-CondensedMedium, Futura;}.cls-5{letter-spacing:0.04em;}.cls-6{letter-spacing:-0.01em;}.cls-7{letter-spacing:-0.02em;}.cls-8{letter-spacing:-0.02em;}.cls-9{font-size:7px;}.cls-10{font-size:8px;}</style></defs><title>runes</title><polygon class="cls-1" points="28.01 76.14 74.34 112.8 74.34 100.89 42.77 76.08 74.34 51.28 74.34 39.47 28.01 76.14"/><text class="cls-2" transform="translate(25.2 134.63)">KAU<tspan class="cls-3" x="25.63" y="0">N</tspan><tspan x="34.6" y="0">AN</tspan></text><text class="cls-4" transform="translate(40.86 150.09)">F<tspan class="cls-5" x="3.5" y="0">L</tspan><tspan x="7.21" y="0">AME</tspan></text><text class="cls-4" transform="translate(33.37 29.57)"><tspan class="cls-6">A</tspan><tspan x="4.01" y="0">CTI</tspan><tspan class="cls-7" x="13.27" y="0">V</tspan><tspan class="cls-8" x="16.78" y="0">A</tspan><tspan x="20.7" y="0">TION</tspan></text><text class="cls-9" transform="translate(6.08 167.42)">FREYR</text><path class="cls-1" d="M97.6,9.18l0-.11c.07-.34.05-.58-.26-.58s-.38.23-.49.78l-.19.87a1.13,1.13,0,0,1,.89-.39c.86,0,1,.75.84,1.64l-.22,1c-.23,1.09-.63,1.75-1.86,1.75s-1.56-.85-1.34-1.85l.57-2.71c.23-1.08.56-2.11,1.86-2.11s1.47.93,1.36,1.56l0,.11Zm-.7,3.45.28-1.23c.07-.35.06-.6-.27-.6s-.41.23-.5.7l-.24,1.14c-.06.32,0,.56.28.56S96.81,13,96.9,12.63Z"/><text class="cls-10" transform="translate(92.29 167.09)">VI</text><path class="cls-1" d="M6.47,14.49,9.25,7.25h.68L7.14,14.49Z"/><path class="cls-1" d="M11.65,11h0c.34-.61.87-1.53,1.2-2.13H14.2c-.43.67-.91,1.35-1.32,2,0,.38.26,2.88.26,3.27H11.89c0-.21-.1-2-.1-2.16-.15.23-.38.55-.48.7L11,14.09H9.75l1.47-7h1.24Z"/><path class="cls-1" d="M13.63,14.49l2.79-7.24h.68l-2.8,7.24Z"/></svg>