<svg id="Layer_1" data-name="Layer 1" xmlns="http://www.w3.org/2000/svg" viewBox="0 0 104.94 174.18"><defs><style>.cls-1,.cls-2,.cls-4,.cls-8,.cls-9{fill:#ffeb3b;}.cls-2{font-size:14px;}.cls-2,.cls-9{font-family:Futura-CondensedExtraBold, Futura;font-weight:700;}.cls-3{letter-spacing:0.03em;}.cls-4{font-size:10px;}.cls-4,.cls-8{font-family:Futura-CondensedMedium, Futura;}.cls-5{letter-spacing:-0.02em;}.cls-6{letter-spacing:-0.02em;}.cls-7{letter-spacing:-0.01em;}.cls-8{font-size:7px;}.cls-9{font-size:8px;}</style></defs><title>runes</title><polyline class="cls-1" points="44.8 40.64 34.1 40.64 34.1 113.64 45.1 113.64 44.8 55.34 71.8 82.62 72.1 68.06"/><text class="cls-2" transform="translate(32.23 135.63)"><tspan class="cls-3">L</tspan><tspan x="6.21" y="0">AGUZ</tspan></text><text class="cls-4" transform="translate(41.99 151.09)"><tspan class="cls-5">W</tspan><tspan class="cls-6" x="5.76" y="0">A</tspan><tspan x="9.67" y="0">TER</tspan></text><text class="cls-4" transform="translate(26.55 30.57)">PE<tspan class="cls-7" x="7.6" y="0">R</tspan><tspan x="11.7" y="0">CEPTIVENESS</tspan></text><path class="cls-1" d="M92,13.88l0-.18a6,6,0,0,1,1.56-2.86c.93-1,1.08-1.19,1.22-1.87.1-.45.06-.67-.22-.67s-.36.14-.47.63l-.08.38H92.89L93,9c.15-.76.42-1.69,1.73-1.69s1.54.84,1.33,1.87-.45,1.17-1.37,2.19a5.1,5.1,0,0,0-1,1.44h1.8l-.36,1.08Z"/><path class="cls-1" d="M96.07,13.88l1.1-5.19a5.2,5.2,0,0,1-.59,0l.19-.89a1.51,1.51,0,0,0,1-.39h1l-1.39,6.52Z"/><text class="cls-8" transform="translate(5.2 167.2)">TÝR</text><text class="cls-9" transform="translate(93.88 166.87)">V</text><path class="cls-1" d="M5.58,14.28,8.37,7h.68l-2.8,7.25Z"/><path class="cls-1" d="M8.86,13.88l1.48-7H11.6l-1.48,7Z"/><path class="cls-1" d="M11,14.28,13.8,7h.68l-2.8,7.25Z"/></svg>