<svg id="Layer_1" data-name="Layer 1" xmlns="http://www.w3.org/2000/svg" viewBox="0 0 104.94 174.18"><defs><style>.cls-1,.cls-2,.cls-4,.cls-5,.cls-7{fill:#ffeb3b;}.cls-2{font-size:14px;}.cls-2,.cls-7{font-family:Futura-CondensedExtraBold, Futura;font-weight:700;}.cls-3{letter-spacing:0em;}.cls-4{font-size:10px;}.cls-4,.cls-5{font-family:Futura-CondensedMedium, Futura;}.cls-5{font-size:7px;}.cls-6{letter-spacing:-0.01em;}.cls-7{font-size:8px;}</style></defs><title>runes</title><polygon class="cls-1" points="76.14 84.32 56.34 72.89 56.34 40.99 46.09 40.99 46.09 66.97 31.63 58.63 26.41 67.67 46.09 79.03 46.09 111.99 56.34 111.99 56.34 84.94 70.92 93.36 76.14 84.32"/><text class="cls-2" transform="translate(27.76 134.99)"><tspan class="cls-3">N</tspan><tspan x="8.98" y="0">AUÐIZ</tspan></text><text class="cls-4" transform="translate(19.22 150.45)">NEEDS &amp; EMPTINESS</text><text class="cls-4" transform="translate(32.17 29.93)">NECESSITIES</text><text class="cls-5" transform="translate(4.99 167.78)">HEIM<tspan class="cls-6" x="11.34" y="0">D</tspan><tspan x="14.55" y="0">ALLR</tspan></text><path class="cls-1" d="M92,14.45l1.1-5.18a5.29,5.29,0,0,1-.6-.06l.19-.89a1.49,1.49,0,0,0,1-.39h1l-1.38,6.52Z"/><path class="cls-1" d="M98.26,9.73l-.65,3.06c-.19.9-.53,1.75-1.83,1.75s-1.57-.84-1.35-1.9l.66-3.06c.24-1.13.75-1.7,1.81-1.7S98.49,8.66,98.26,9.73Zm-1.93-.28-.74,3.42c-.1.44,0,.66.29.66s.4-.21.48-.59l.75-3.51c.06-.26,0-.55-.3-.55S96.39,9.12,96.33,9.45Z"/><text class="cls-7" transform="translate(93.41 167.45)">II</text><path class="cls-1" d="M5.37,14.85,8.16,7.6h.68L6,14.85Z"/><path class="cls-1" d="M9.43,10.76c.2-.94.29-1.38.32-1.57H11a2.32,2.32,0,0,1-.06.38,1.27,1.27,0,0,1,1-.46c.73,0,1,.54.82,1.3l-.86,4H10.62l.79-3.75c.08-.36,0-.56-.23-.56s-.4.2-.51.72l-.76,3.59H8.65Z"/><path class="cls-1" d="M12.77,14.85,15.56,7.6h.68l-2.8,7.25Z"/></svg>