<svg id="Layer_1" data-name="Layer 1" xmlns="http://www.w3.org/2000/svg" viewBox="0 0 104.94 174.18"><defs><style>.cls-1,.cls-10,.cls-2,.cls-3,.cls-8{fill:#ffeb3b;}.cls-2{font-size:14px;}.cls-10,.cls-2{font-family:Futura-CondensedExtraBold, Futura;font-weight:700;}.cls-3{font-size:10px;}.cls-3,.cls-8{font-family:Futura-CondensedMedium, Futura;}.cls-4{letter-spacing:0em;}.cls-5{letter-spacing:0.01em;}.cls-6{letter-spacing:-0.01em;}.cls-7{letter-spacing:0.04em;}.cls-8{font-size:7px;}.cls-9{letter-spacing:-0.01em;}.cls-10{font-size:8px;}</style></defs><title>runes</title><polygon class="cls-1" points="55.14 63.63 77.19 49.88 77.19 40.11 55.61 53.35 36.47 40.11 26.5 40.11 26.5 114.11 36.47 114.11 55.61 101.26 77.19 114.11 77.19 104.33 56.14 91.38 35.5 104.26 35.5 50.74 55.14 63.63"/><text class="cls-2" transform="translate(31.92 135.94)">PERÞŌ</text><text class="cls-3" transform="translate(30.54 151.06)">U<tspan class="cls-4" x="4.63" y="0">N</tspan><tspan x="9.3" y="0">CE</tspan><tspan class="cls-5" x="16.74" y="0">R</tspan><tspan class="cls-6" x="21.05" y="0">T</tspan><tspan x="24.18" y="0">AIN</tspan><tspan class="cls-7" x="35.11" y="0">T</tspan><tspan x="38.83" y="0">Y</tspan></text><text class="cls-3" transform="translate(33 30.54)">POSSIBILI<tspan class="cls-7" x="30.17" y="0">T</tspan><tspan x="33.88" y="0">Y</tspan></text><text class="cls-8" transform="translate(5.16 167.78)">HEIM<tspan class="cls-9" x="11.34" y="0">D</tspan><tspan x="14.55" y="0">ALLR</tspan></text><path class="cls-1" d="M92.34,14.45l1.09-5.18a5.35,5.35,0,0,1-.59-.06L93,8.32a1.49,1.49,0,0,0,1-.39h1L93.6,14.45Z"/><path class="cls-1" d="M96,14.45l.31-1.51H94.59l.21-1,2-4h1.77l-.85,4h.42l-.29,1H97.5l-.32,1.51Zm.73-3.4c.15-.72.35-1.47.47-2h0c-.37.87-.84,2.08-1.24,2.91h.6Z"/><text class="cls-10" transform="translate(91.37 167.45)">VI</text><path class="cls-1" d="M5.54,14.85,8.33,7.6H9l-2.8,7.25Z"/><path class="cls-1" d="M10.16,14.1l-.44,2.06H8.47L9.62,10.7c.16-.71.26-1.25.31-1.51h1.23a3,3,0,0,1-.07.46,1.13,1.13,0,0,1,1-.54c.75,0,1,.63.76,1.65l-.44,2.09c-.24,1.07-.61,1.68-1.47,1.68A.79.79,0,0,1,10.16,14.1Zm1-1.29.42-2c.08-.38.08-.7-.21-.7s-.42.31-.52.8l-.36,1.68c-.11.54-.1.84.21.84S11.07,13.18,11.14,12.81Z"/><path class="cls-1" d="M12.89,14.85,15.68,7.6h.68l-2.8,7.25Z"/></svg>