<svg id="Layer_1" data-name="Layer 1" xmlns="http://www.w3.org/2000/svg" viewBox="0 0 104.94 174.18"><defs><style>.cls-1,.cls-2,.cls-3,.cls-5,.cls-6{fill:#ffeb3b;}.cls-2{font-size:14px;}.cls-2,.cls-6{font-family:Futura-CondensedExtraBold, Futura;font-weight:700;}.cls-3{font-size:10px;}.cls-3,.cls-5{font-family:Futura-CondensedMedium, Futura;}.cls-4{letter-spacing:0.01em;}.cls-5{font-size:7px;}.cls-6{font-size:8px;}</style></defs><title>runes</title><polygon class="cls-1" points="82.62 70.64 52.55 40.2 22.38 70.64 33.31 70.64 48 56.14 48 111.64 57 111.64 57 56.36 71.89 70.64 82.62 70.64"/><text class="cls-2" transform="translate(33.05 135.04)">TÎWAZ</text><text class="cls-3" transform="translate(46.83 150.31)">TÝR</text><text class="cls-3" transform="translate(40.35 29.79)">JU<tspan class="cls-4" x="7.55" y="0">S</tspan><tspan x="11.41" y="0">TICE</tspan></text><text class="cls-5" transform="translate(5.32 167.2)">TÝR</text><path class="cls-1" d="M92.93,13.88,94,8.69a5.39,5.39,0,0,1-.6,0l.2-.89a1.49,1.49,0,0,0,1-.39h1l-1.39,6.52Z"/><path class="cls-1" d="M99.11,7.39l-.21,1a19.51,19.51,0,0,0-2.55,5.53H95A18.67,18.67,0,0,1,97.6,8.47H95.93l.23-1.08Z"/><text class="cls-6" transform="translate(96.21 166.87)">I</text><path class="cls-1" d="M5.7,14.28,8.49,7h.68l-2.8,7.25Z"/><path class="cls-1" d="M9.74,8.61h.53l.27-1.19h1.24l-.27,1.19h.59l-.22,1.06h-.6l-.63,2.86c-.05.24,0,.37.27.37h.28l-.21,1a3.22,3.22,0,0,1-.72.09c-.77,0-1.13-.28-.94-1.2L10,9.67h-.5Z"/><path class="cls-1" d="M11.65,14.28,14.44,7h.68l-2.8,7.25Z"/></svg>