<svg id="Layer_1" data-name="Layer 1" xmlns="http://www.w3.org/2000/svg" viewBox="0 0 104.94 174.18"><defs><style>.cls-1{fill:#ffeb3b;}</style></defs><title>runes</title><path class="cls-1" d="M31.24,104.35H67.4l-5.84-10H56.27l2.93,5.32H39.54l2.84-5.32H36.91Zm0-10.64H42.82l2.64-4.65H39.41L49.27,72l3.06,5.08,2.74-4.73-5.8-9.89Zm9.22-5.27h5.36l3.44-5.84,3.47,5.84h5.34L49.27,73.26Zm.15,10.61H58.18l-2.64-4.71H48.67L52,88.44,49.27,83.8Zm9.11-5.34H67.24L58.47,78.4,55.73,83l3.37,6H52.35Zm3-15.91,2.65,4.59,3.1-5.19,9.89,17.14h-6l2.73,4.71H76.57l-18.1-31.3Z"/><polygon class="cls-1" points="53.03 49.82 50.94 48.67 50.94 48.07 53.03 49.22 53.03 48.39 50.94 47.24 50.94 47.29 50.24 47.29 50.24 52.52 50.94 52.52 50.94 49.5 53.03 50.65 53.03 49.82"/><path class="cls-1" d="M62.15,52.24h0l-1.08-1,.69-.2h0l1.55-.4-2.23-2.22v0l-.74-.2-1.4,5.22.75.2v0l3.07-.82ZM60.8,49.15l1.09,1.06-1.41.39h-.06Zm-1,3.68.38-1.43h.07l1,1Z"/><polyline class="cls-1" points="68.98 54.15 70.56 58.12 70.96 57.43 69.85 54.63 72.83 54.2 73.21 53.54"/><path class="cls-1" d="M78.37,60.68l.42-2.89-.57.57-3.3,3.3,2.88-.42-.41,2.89,3.87-3.87Zm-1.92.19L78,59.32l-.18,1.38Zm1.73,1.73.17-1.38L79.73,61Z"/><polygon class="cls-1" points="86.98 68.39 85.82 67.71 85.81 66.37 85.51 65.84 80.83 68.55 81.09 69 85.16 66.65 85.19 68.04 86.38 68.76 82.31 71.11 82.57 71.57 87.25 68.86 86.98 68.39"/><polygon class="cls-1" points="89.42 78.92 87.7 77.03 88.29 76.87 90.01 78.76 90.82 78.54 89.1 76.65 90.21 76.36 90.03 75.68 84.81 77.08 84.99 77.76 86.89 77.25 88.61 79.13 89.42 78.92"/><polygon class="cls-1" points="91.39 89.16 91.79 88.52 89.82 87.46 91.79 86.4 91.39 85.77 89.04 87.04 86.68 85.77 86.29 86.4 88.25 87.46 86.29 88.52 86.68 89.16 89.04 87.89 91.39 89.16"/><path class="cls-1" d="M90.07,99,87.9,98.4l1.24-2.2,1.57.42.13-.51-5.22-1.4-.14.51,2.14.57L86.38,98l-1.53-.41-.13.5,5.22,1.4Zm-1.81-3,.24.07-1.23,2.2L87,98.16Z"/><rect class="cls-1" x="83.69" y="103.42" width="0.7" height="5.41" transform="translate(-49.89 125.85) rotate(-60)"/><polyline class="cls-1" points="80 113.11 76.95 113.47 77.36 113.88 79.5 113.63 79.25 115.77 79.64 116.16"/><polyline class="cls-1" points="76.18 114.87 76.5 111.78 76.9 112.18 76.65 114.33 78.8 114.08 79.27 114.55"/><polygon class="cls-1" points="69.48 121.11 72.28 121.86 72.26 121.84 72.91 121.47 70.2 116.78 69.6 117.13 71.8 120.95 68.96 120.21 69.48 121.11"/><path class="cls-1" d="M60.77,126.51l1-1,1.31.35.65-.18-1.4-5.22-.67.18.87,3.23-.88.93h0l-1.32-.31-.86-3.24-.53.11,1.4,5.22Zm1.92-1.88.16.6-.6-.16Zm-1.61.73-.43.43-.15-.59Z"/><polygon class="cls-1" points="49.82 124.22 51.29 125.03 51.29 127.54 51.98 127.54 51.98 125.46 52.99 126.06 53.38 125.42 51.98 124.61 51.98 122.13 51.29 122.13 51.29 124.18 50.22 123.58 49.82 124.22"/><path class="cls-1" d="M41.82,122.89h0L40,124l1.27,2.26,2.23-1.33L42.37,123h0L44.19,122l.16-.61-2.16,1.32L41,120.43l-.16.62Zm1,1.83-1.45.84-.83-1.45,1.45-.85Z"/><polygon class="cls-1" points="32.27 120.65 30.41 120.7 30.04 121.34 31.87 121.25 32.55 122.73 33.08 123.03 35.79 118.35 35.26 118.05 33.63 118.19 32.8 116.55 32.43 117.19 33.31 118.83 35 118.68 32.97 122.18 32.27 120.65"/><path class="cls-1" d="M15.7,78.83h0l-.22-.89-.19-.82h0l-.4-1.54L12.6,78v0l-.18.7,5.39,1.45.19-.7h0l-2.28-.63Zm-.87-.19-1.44-.38,1.09-1.14.37,1.5h0Z"/><path class="cls-1" d="M28.47,113.12h0l-1.65,1.63.37-2.91-.66-.66-.4,3.37-2.36-.64.85,3.06,0,0,.53.53L29,113.65l-.25-.25Zm-2.16,2.24-1.06,1.06L24.84,115l1.43.38,0,0Z"/><polygon class="cls-1" points="18.13 104.74 19.41 106.97 16.29 105.81 16.29 105.81 16.16 106.33 19.84 107.78 20.33 107.5 20.21 107.3 20.21 107.3 20.21 107.3 19 105.2 22.1 106.48 22.11 106.48 22.21 105.89 18.52 104.37 18.58 104.48 18.13 104.74"/><polygon class="cls-1" points="14.47 94.97 12.83 97.76 15.65 99.36 15.43 98.57 14.1 97.83 18.19 96.74 18.01 96.06 13.88 97.17 14.68 95.75 14.47 94.97"/><polygon class="cls-1" points="11.51 88.49 11.51 89.16 16.92 89.16 16.92 88.64 12.2 88.64 13.55 86.19 16.92 86.19 16.92 85.67 13.17 85.67 11.51 88.49"/><path class="cls-1" d="M20.06,67.22,17.24,69l-1-.56-.27.45,4.69,2.71.26-.46-1-.57.05-.91,0-.81h0Zm-.83,2.9L18,69.39l1.3-.8Z"/><polygon class="cls-1" points="27.6 62.82 27.57 62.85 24.43 59.72 25.24 59.48 25.05 58.73 22.99 59.27 26.13 62.4 25.36 62.59 25.54 63.35 27.6 62.82"/><polygon class="cls-1" points="23 59.26 23 59.26 23 59.26 23 59.26"/><polygon class="cls-1" points="33.72 51.43 32.96 51.87 32.55 53.32 32.03 52.41 31.27 52.84 31.81 53.77 30.26 53.42 29.51 53.86 32.21 54.47 33.98 57.52 34.73 57.09 32.96 54.03 33.72 51.43"/><path class="cls-1" d="M43.22,48.61l-.12-.48L41.69,50l-2.13-.9.13.48,1.76.76-1.22,1.56h0l1.86.73-1.15,1.54.13.49,1.4-1.85,2.14.9-.13-.48-1.8-.75,1.21-1.56h0L42,50.16Zm-.94,3.69-1.43-.58.95-1.23,1.43.59Z"/><path class="cls-1" d="M51.63,55.78A31.64,31.64,0,1,0,83.27,87.41,31.63,31.63,0,0,0,51.63,55.78Zm0,62.53a30.9,30.9,0,1,1,30.9-30.9A30.78,30.78,0,0,1,51.63,118.31Z"/><path class="cls-1" d="M51.63,53.71a33.71,33.71,0,1,0,33.71,33.7A33.83,33.83,0,0,0,51.63,53.71Zm0,66.44A32.74,32.74,0,1,1,84.37,87.41,32.61,32.61,0,0,1,51.63,120.15Z"/><path class="cls-1" d="M51.63,43.22a44.2,44.2,0,1,0,44.2,44.19A44.2,44.2,0,0,0,51.63,43.22Zm0,87.69a43.5,43.5,0,1,1,43.5-43.5A43.49,43.49,0,0,1,51.63,130.91Z"/><path class="cls-1" d="M51.63,45.08A42.34,42.34,0,1,0,94,87.41,42.21,42.21,0,0,0,51.63,45.08Zm0,83.79A41.46,41.46,0,1,1,93.09,87.41,41.46,41.46,0,0,1,51.63,128.87Z"/></svg>