<svg id="Layer_1" data-name="Layer 1" xmlns="http://www.w3.org/2000/svg" viewBox="0 0 104.94 174.18"><defs><style>.cls-1,.cls-2,.cls-3,.cls-5,.cls-6{fill:#ffeb3b;}.cls-2{font-size:14px;}.cls-2,.cls-6{font-family:Futura-CondensedExtraBold, Futura;font-weight:700;}.cls-3{font-size:10px;}.cls-3,.cls-5{font-family:Futura-CondensedMedium, Futura;}.cls-4{letter-spacing:-0.01em;}.cls-5{font-size:7px;}.cls-6{font-size:8px;}</style></defs><title>runes</title><path class="cls-1" d="M41.89,83.14l8.7-5.63,8.8-5.07v0L77.94,62,41.76,40.07h-11v74h11l0,.07m0-42.27V52.14L60.44,62,40.85,71.89l-.1-.06Z"/><text class="cls-2" transform="translate(30.31 135.94)">WUNJŌ</text><text class="cls-3" transform="translate(46.6 151.06)">J<tspan class="cls-4" x="2.92" y="0">O</tspan><tspan x="7.59" y="0">Y</tspan></text><text class="cls-3" transform="translate(30.19 30.54)">BLISSFULNESS</text><text class="cls-5" transform="translate(5.65 167.78)">FREYR</text><path class="cls-1" d="M95.09,12.7l.09-.44a1.51,1.51,0,0,1,.94-1.3,1.2,1.2,0,0,1-.29-1.28l.08-.41a1.55,1.55,0,0,1,1.67-1.39,1.2,1.2,0,0,1,1.3,1.62l-.07.34c-.16.8-.43,1-.78,1.18a1.27,1.27,0,0,1,.36,1.35l-.1.48c-.25,1.25-.79,1.69-1.87,1.69S94.83,13.93,95.09,12.7ZM97,13l.19-.89c.08-.37,0-.57-.3-.57s-.37.18-.45.55l-.19.9c-.08.42,0,.6.29.6S96.92,13.43,97,13Zm0-3.6-.14.67c-.05.27,0,.47.26.47s.35-.16.41-.48l.14-.67c.05-.25,0-.47-.27-.47S97.13,9.07,97.07,9.36Z"/><text class="cls-6" transform="translate(86.91 167.45)">VIII</text><path class="cls-1" d="M6,14.85,8.82,7.6H9.5L6.7,14.85Z"/><path class="cls-1" d="M11.37,9.19c-.18,1.69-.32,3.1-.39,3.54h0c.19-.67.58-1.82,1.2-3.54h1.15c-.13,1.6-.21,2.74-.32,3.53h0c.15-.54.42-1.6,1.05-3.53h1.29l-2.06,5.26H12.1c.09-1.24.14-2.42.21-3.11h0c-.21.67-.69,1.84-1.17,3.11H9.86l.22-5.26Z"/><path class="cls-1" d="M14.91,14.85,17.7,7.6h.68l-2.8,7.25Z"/></svg>