<svg id="Layer_1" data-name="Layer 1" xmlns="http://www.w3.org/2000/svg" viewBox="0 0 104.94 174.18"><defs><style>.cls-1{font-size:14px;font-family:Futura-CondensedExtraBold, Futura;font-weight:700;}.cls-1,.cls-2,.cls-5{fill:#ffeb3b;}.cls-2{font-size:10px;font-family:Futura-CondensedMedium, Futura;}.cls-3{letter-spacing:-0.01em;}.cls-4{letter-spacing:-0.02em;}</style></defs><title>runes</title><text class="cls-1" transform="translate(33.95 135.58)">WYRD</text><text class="cls-2" transform="translate(45.27 30.18)"><tspan class="cls-3">F</tspan><tspan class="cls-4" x="3.37" y="0">A</tspan><tspan x="7.29" y="0">TE</tspan></text><path class="cls-5" d="M99,9.38l-.65,3c-.19.9-.53,1.75-1.83,1.75s-1.57-.84-1.35-1.9l.66-3.06c.24-1.13.75-1.7,1.81-1.7S99.18,8.31,99,9.38ZM97,9.09l-.74,3.43c-.1.44,0,.65.3.65s.39-.21.47-.58l.75-3.52c.06-.26,0-.54-.3-.54S97.08,8.76,97,9.09Z"/></svg>