<svg id="Layer_1" data-name="Layer 1" xmlns="http://www.w3.org/2000/svg" viewBox="0 0 47.88 47.75"><defs><style>.cls-1{fill:#ffeb3b;}</style></defs><title>thor-bg</title><path class="cls-1" d="M30,8.55l-8.6-.63a2,2,0,0,0-1.82.86s-5.17,7.38-5.23,7.58A4.86,4.86,0,1,0,10,21.69,4.8,4.8,0,0,0,12.06,21l-2.8,6-7.43.78a2,2,0,0,0,.43,4.07l8.58-.9a2.08,2.08,0,0,0,1.63-1.14h0l2.34-5,12.54,6.08L39.9,39.68a2.45,2.45,0,0,0,3.41-.59h0a3.79,3.79,0,0,0,.2-.34,2.47,2.47,0,0,0-.8-3.08L30.29,26.9l14.55,4.37A2.46,2.46,0,0,0,47.75,30a2.39,2.39,0,0,0,.15-.37,2.46,2.46,0,0,0-1.65-3.06l-14.68-4.4L19.35,16.23l2.93-4.15,7.45.55a2.05,2.05,0,0,0,2-1.15,2.09,2.09,0,0,0,.2-.74,2,2,0,0,0-1.8-2.18Z"/></svg>