<svg id="Layer_1" data-name="Layer 1" xmlns="http://www.w3.org/2000/svg" viewBox="0 0 217.61 248"><defs><style>.cls-1{fill:#ffeb3b;}</style></defs><title>raven</title><path class="cls-1" d="M211.57,234.22c-5.71-7-19.76-18.89-19.76-18.89s14.93,11,20.64,10.1S195.32,200,184.78,194.25s-21.08-14.93-21.08-14.93-13.18-68.08-39.1-93.12-35.14-21.52-36-27.67a26.82,26.82,0,0,1-.09-4.93l.1.1s0-.08-.09-.21c.08-1.19.2-2.46.38-3.8a19.21,19.21,0,0,1,3.66-4.34C99.13,39.2,129,40.52,129,40.52s-8.34-13.18-18.89-15.37a65.45,65.45,0,0,0-17.81-.68c-4.45-8.33-16.6-26-38.85-24.36C24.46,2.31,17,35.25,14.79,48.43S-5.41,86.2,1.62,111.68C8.26,135.76,32.18,174.37,60,183a25,25,0,0,0-.27,6.69c.67,6.66-2.24,14.52-3.36,19.71a9.45,9.45,0,0,0-1.41.07c-7.71.92-10.18,1.84-16.66,4.31s-4.31,4,3.09,3.39a68.28,68.28,0,0,0,11.13-2.22c.65,0,1.37-.06,2.14-.13,1-.08,2-.21,3-.37,3.17.76,9.72,4.89,12.73,5.18s2.47-1.23.61-2.77a34.23,34.23,0,0,0-5.39-4.21,12.88,12.88,0,0,1,5.11-.6c3.08.62,9.86,4.93,13,5.24s2.46-1.23.61-2.77c0,0-4.82-4.82-10.52-6.71,1.79-5,5.36-14.44,7.63-16.47a24.18,24.18,0,0,0,3.72-4.54c19.08,1.65,33.28.87,45.21,4.86,15.82,5.27,54.47,43.92,74.24,53.14S217.29,241.25,211.57,234.22ZM69.65,207a11.09,11.09,0,0,0-1.41.06,66.5,66.5,0,0,0-7.08,1.16c1.91-5.2,4.94-12.79,6.94-14.59A29.2,29.2,0,0,0,73,187.24v.07C73.69,194,70.77,201.83,69.65,207ZM72.12,33.86a4.5,4.5,0,1,1,4.5-4.5A4.49,4.49,0,0,1,72.12,33.86Z" transform="translate(0 0)"/></svg>