<svg id="Layer_1" data-name="Layer 1" xmlns="http://www.w3.org/2000/svg" viewBox="0 0 85 109.29"><defs><style>.cls-1{fill:#ffeb3b;}</style></defs><title>viking-helmet</title><path class="cls-1" d="M84.68,16.8l-1,1.54.52-4.15-.54-.54L82,16.23l.87-6.93-.91-.9-2.09,3.18L81.08,1.5,79.58,0,58.36,32.69A17.31,17.31,0,0,0,48.65,26L42.5,16.18,36.35,26a17.31,17.31,0,0,0-9.71,6.65L5.42,0,3.92,1.5,5.18,11.58,3.09,8.4l-.91.9.87,6.93L1.36,13.65l-.54.54.52,4.15-1-1.54L0,17.12,4.78,56.64,12,64.38,8.81,89.91,33,109.29h5.83L35.6,77.84c-15.46,0-15.46-10.92-15.46-10.92l9.41-2.54,8.88,6.13,2,19.4h4.1l2-19.4,8.88-6.13,9.41,2.54s0,10.92-15.46,10.92l-3.27,31.45H52L76.19,89.91,73,64.38l7.24-7.74L85,17.12Z"/></svg>