<svg id="Layer_1" data-name="Layer 1" xmlns="http://www.w3.org/2000/svg" viewBox="0 0 104.94 174.18"><defs><style>.cls-1,.cls-2,.cls-4,.cls-8,.cls-9{fill:#ffeb3b;}.cls-2{font-size:14px;}.cls-2,.cls-9{font-family:Futura-CondensedExtraBold, Futura;font-weight:700;}.cls-3{letter-spacing:0em;}.cls-4{font-size:10px;}.cls-4,.cls-8{font-family:Futura-CondensedMedium, Futura;}.cls-5{letter-spacing:-0.01em;}.cls-6{letter-spacing:0.01em;}.cls-7{letter-spacing:0.04em;}.cls-8{font-size:7px;}.cls-9{font-size:8px;}</style></defs><title>runes</title><path class="cls-1" d="M77.69,92.52,52.86,77.22,77.57,61.58,43.64,39.84h-11v74h11m0-42.43V51.67l16.82,9.91Zm16.9,21.11-16.9,9.91V82.69"/><text class="cls-2" transform="translate(17.99 135.33)">BERKA<tspan class="cls-3" x="40.35" y="0">N</tspan><tspan x="49.33" y="0">AN</tspan></text><text class="cls-4" transform="translate(41.87 150.79)">BI<tspan class="cls-5" x="6.29" y="0">R</tspan><tspan x="10.4" y="0">CH</tspan></text><text class="cls-4" transform="translate(36.34 30.27)">FE<tspan class="cls-6" x="7.13" y="0">R</tspan><tspan x="11.44" y="0">TILI</tspan><tspan class="cls-7" x="22.37" y="0">T</tspan><tspan x="26.09" y="0">Y</tspan></text><text class="cls-8" transform="translate(4.96 167.2)">TÝR</text><path class="cls-1" d="M92,13.88l1.1-5.19a5.39,5.39,0,0,1-.6,0l.2-.89a1.49,1.49,0,0,0,1-.39h1L93.3,13.88Z"/><path class="cls-1" d="M94.4,12.13l.09-.44a1.5,1.5,0,0,1,.94-1.3,1.24,1.24,0,0,1-.29-1.29l.09-.4a1.54,1.54,0,0,1,1.66-1.4c1,0,1.51.62,1.3,1.63l-.06.34c-.17.79-.44,1-.79,1.18a1.25,1.25,0,0,1,.36,1.35l-.1.48c-.25,1.25-.79,1.68-1.87,1.68S94.14,13.35,94.4,12.13Zm1.93.25.19-.88c.08-.38,0-.57-.3-.57s-.37.17-.45.55l-.19.9c-.08.42,0,.59.29.59S96.23,12.86,96.33,12.38Zm0-3.59-.14.67c0,.26,0,.46.26.46s.35-.15.42-.48l.13-.66c0-.25,0-.47-.27-.47S96.44,8.5,96.38,8.79Z"/><text class="cls-9" transform="translate(93.38 166.87)">II</text><path class="cls-1" d="M5.34,14.28,8.13,7h.68L6,14.28Z"/><path class="cls-1" d="M10.1,6.91h1.26l-.44,2a1.14,1.14,0,0,1,.9-.42c.8,0,1,.66.81,1.69l-.42,2C12,13.27,11.63,14,10.75,14a.73.73,0,0,1-.79-.52,2.32,2.32,0,0,1-.12.44H8.62c.1-.43.19-.9.28-1.32Zm.84,5.32.43-2c.08-.37.08-.63-.23-.63s-.4.21-.5.68l-.42,2c-.1.48,0,.65.25.65S10.82,12.82,10.94,12.23Z"/><path class="cls-1" d="M12.68,14.28,15.47,7h.68l-2.8,7.25Z"/></svg>