<svg id="Layer_1" data-name="Layer 1" xmlns="http://www.w3.org/2000/svg" viewBox="0 0 104.94 174.18"><defs><style>.cls-1,.cls-2,.cls-3,.cls-6,.cls-8{fill:#ffeb3b;}.cls-2{font-size:14px;}.cls-2,.cls-8{font-family:Futura-CondensedExtraBold, Futura;font-weight:700;}.cls-3{font-size:10px;}.cls-3,.cls-6{font-family:Futura-CondensedMedium, Futura;}.cls-4{letter-spacing:-0.01em;}.cls-5{letter-spacing:0.02em;}.cls-6{font-size:7px;}.cls-7{letter-spacing:-0.01em;}.cls-8{font-size:8px;}</style></defs><title>runes</title><polygon class="cls-1" points="56.52 113.84 56.52 113.82 56.52 57.85 67.28 64.09 72.49 55.66 47.52 41 47.52 96.9 36.66 90.69 31.58 99.13 56.52 113.84"/><polygon class="cls-1" points="46.86 40.99 46.84 40.98 46.8 41.06 46.86 40.99"/><text class="cls-2" transform="translate(34.06 136.24)">EĪHAZ</text><text class="cls-3" transform="translate(34.39 151.37)"><tspan class="cls-4">Y</tspan><tspan x="3.79" y="0">GGDRASIL</tspan></text><text class="cls-3" transform="translate(38.45 30.85)"><tspan class="cls-5">W</tspan><tspan x="6.13" y="0">ISDOM</tspan></text><text class="cls-6" transform="translate(5.27 167.78)">HEIM<tspan class="cls-7" x="11.34" y="0">D</tspan><tspan x="14.55" y="0">ALLR</tspan></text><path class="cls-1" d="M92.46,14.45l1.1-5.18A5.11,5.11,0,0,1,93,9.21l.19-.89a1.51,1.51,0,0,0,1-.39h1l-1.39,6.52Z"/><path class="cls-1" d="M95.48,9.57l.06-.23c.16-.73.46-1.46,1.62-1.46s1.55.71,1.31,1.86a1.34,1.34,0,0,1-1,1.2h0c.46.26.68.71.48,1.7s-.55,1.88-1.89,1.88-1.54-.75-1.37-1.67l0-.17H96l-.06.26c-.07.37,0,.64.26.64s.39-.28.52-.9c.22-1,.07-1.23-.46-1.23H96l.22-1h.2c.57,0,.72-.15.85-.76s.12-.81-.15-.81-.31.15-.38.47l-.06.25Z"/><text class="cls-8" transform="translate(93.95 167.45)">V</text><path class="cls-1" d="M5.65,14.85,8.44,7.6h.68l-2.8,7.25Z"/><path class="cls-1" d="M10.58,12.15l-.17.82c-.07.34,0,.57.23.57s.36-.26.42-.53l0-.23h1.23l0,.16c-.18.88-.52,1.59-1.78,1.59S9,13.6,9.23,12.59l.37-1.75c.2-.93.57-1.73,1.82-1.73S13,9.94,12.74,11l-.25,1.18Zm.88-.91.12-.59c.07-.34.07-.59-.23-.59s-.36.16-.45.59l-.12.59Z"/><path class="cls-1" d="M13.76,9.19H15l-1.12,5.26H12.64Zm.36-1.7h1.26l-.25,1.16H13.87Z"/><path class="cls-1" d="M16,14.85,18.83,7.6h.68l-2.8,7.25Z"/></svg>