<svg id="Layer_1" data-name="Layer 1" xmlns="http://www.w3.org/2000/svg" viewBox="0 0 104.94 174.18"><defs><style>.cls-1,.cls-2,.cls-3,.cls-6,.cls-7{fill:#ffeb3b;}.cls-2{font-size:14px;}.cls-2,.cls-7{font-family:Futura-CondensedExtraBold, Futura;font-weight:700;}.cls-3{font-size:10px;}.cls-3,.cls-6{font-family:Futura-CondensedMedium, Futura;}.cls-4{letter-spacing:-0.02em;}.cls-5{letter-spacing:0.04em;}.cls-6{font-size:7px;}.cls-7{font-size:8px;}</style></defs><title>runes</title><polygon class="cls-1" points="70.06 60.44 44.06 76.19 44.06 67.96 70.06 52.21 70.06 40.96 44.06 56.71 44.06 41.74 34.06 41.74 34.06 113.75 44.06 113.75 44.06 87.44 70.06 71.69 70.06 60.44"/><text class="cls-2" transform="translate(37.14 136.57)">FÉHU</text><text class="cls-3" transform="translate(39.69 151.31)">WEA<tspan class="cls-4" x="13.64" y="0">L</tspan><tspan x="16.78" y="0">TH</tspan></text><text class="cls-3" transform="translate(37.23 30.79)">SERENI<tspan class="cls-5" x="22.07" y="0">T</tspan><tspan x="25.78" y="0">Y</tspan></text><path class="cls-1" d="M95.75,14.09l1.1-5.18-.6-.05.2-.89a1.59,1.59,0,0,0,1-.39h1L97,14.09Z"/><text class="cls-6" transform="translate(4.87 167.42)">FREYR</text><text class="cls-7" transform="translate(95.77 167.09)">I</text><path class="cls-1" d="M5.26,14.49,8,7.25h.68l-2.8,7.24Z"/><path class="cls-1" d="M8.68,14.09l.9-4.21H9.06l.22-1.05H9.8l.08-.36c.16-.78.46-1.4,1.48-1.4a2.36,2.36,0,0,1,.58.07l-.21,1a.71.71,0,0,0-.21,0c-.23,0-.33.13-.38.4l-.07.31h.58l-.23,1.05h-.57L10,14.09Z"/><path class="cls-1" d="M12.31,14.49,15.1,7.25h.68L13,14.49Z"/></svg>