<svg id="Layer_1" data-name="Layer 1" xmlns="http://www.w3.org/2000/svg" viewBox="0 0 104.94 174.18"><defs><style>.cls-1,.cls-2,.cls-3,.cls-7,.cls-9{fill:#ffeb3b;}.cls-2{font-size:14px;}.cls-2,.cls-9{font-family:Futura-CondensedExtraBold, Futura;font-weight:700;}.cls-3{font-size:10px;}.cls-3,.cls-7{font-family:Futura-CondensedMedium, Futura;}.cls-4{letter-spacing:0.01em;}.cls-5{letter-spacing:-0.01em;}.cls-6{letter-spacing:0.04em;}.cls-7{font-size:7px;}.cls-8{letter-spacing:-0.01em;}.cls-9{font-size:8px;}</style></defs><title>runes</title><polygon class="cls-1" points="58.34 35.95 58.34 46.93 32.87 66.76 58.34 85.64 58.34 95.92 19.69 66.41 58.34 35.95"/><polygon class="cls-1" points="84.99 89.93 46.34 119.32 46.34 109.04 71.81 90.16 46.34 71.28 46.34 60.53 84.99 89.93"/><text class="cls-2" transform="translate(37.84 135.94)">JĒRA</text><text class="cls-3" transform="translate(40.42 151.06)">EA<tspan class="cls-4" x="7.71" y="0">R</tspan><tspan x="12.02" y="0">THY</tspan></text><text class="cls-3" transform="translate(33.25 30.54)">P<tspan class="cls-5" x="3.96" y="0">R</tspan><tspan x="8.09" y="0">OSPERI</tspan><tspan class="cls-6" x="30.59" y="0">T</tspan><tspan x="34.31" y="0">Y</tspan></text><text class="cls-7" transform="translate(5.39 167.78)">HEIM<tspan class="cls-8" x="11.34" y="0">D</tspan><tspan x="14.55" y="0">ALLR</tspan></text><path class="cls-1" d="M92.65,14.45l1.1-5.18a5.11,5.11,0,0,1-.59-.06l.19-.89a1.51,1.51,0,0,0,1-.39h1l-1.38,6.52Z"/><path class="cls-1" d="M94.69,14.45l0-.18a5.86,5.86,0,0,1,1.56-2.86c.93-1,1.07-1.19,1.21-1.87.1-.45.06-.67-.22-.67s-.36.14-.46.63l-.08.38H95.58l.06-.32c.16-.76.43-1.68,1.73-1.68s1.54.83,1.33,1.86-.45,1.17-1.37,2.19a4.88,4.88,0,0,0-1,1.45H98.1l-.36,1.07Z"/><text class="cls-9" transform="translate(91.6 167.45)">IV</text><path class="cls-1" d="M5.78,14.85,8.57,7.6h.68l-2.8,7.25Z"/><path class="cls-1" d="M11.44,9.19l-1.09,5.17c-.22,1-.37,1.86-1.56,1.86a3.9,3.9,0,0,1-.65-.06l.22-1.05.26,0c.23,0,.32-.1.39-.41l1.17-5.53ZM10.3,8.65l.25-1.16h1.26l-.25,1.16Z"/><path class="cls-1" d="M11.22,14.85,14,7.6h.68l-2.8,7.25Z"/></svg>