<svg id="Layer_1" data-name="Layer 1" xmlns="http://www.w3.org/2000/svg" viewBox="0 0 104.94 174.18"><defs><style>.cls-1,.cls-2,.cls-4,.cls-7,.cls-8{fill:#ffeb3b;}.cls-2{font-size:14px;}.cls-2,.cls-8{font-family:Futura-CondensedExtraBold, Futura;font-weight:700;}.cls-3{letter-spacing:0em;}.cls-4{font-size:10px;}.cls-4,.cls-7{font-family:Futura-CondensedMedium, Futura;}.cls-5{letter-spacing:0.04em;}.cls-6{letter-spacing:-0.01em;}.cls-7{font-size:7px;}.cls-8{font-size:8px;}</style></defs><title>runes</title><path class="cls-1" d="M66.85,40.34l-15,8.91L36.26,40.34H26.85v73h9V67.79l16-8.91v-.11h0v0l15,8.86v45.68h10v-73ZM35.85,58V49.79L43,53.9Zm24-4.2,7-4v8Z"/><text class="cls-2" transform="translate(24.84 135.33)">MAN<tspan class="cls-3" x="29.46" y="0">N</tspan><tspan x="38.44" y="0">AZ</tspan></text><text class="cls-4" transform="translate(35.59 150.79)">HUMANI<tspan class="cls-5" x="25.95" y="0">T</tspan><tspan x="29.66" y="0">Y</tspan></text><text class="cls-4" transform="translate(32.23 30.27)"><tspan class="cls-6">C</tspan><tspan x="3.75" y="0">ONNECTION</tspan></text><text class="cls-7" transform="translate(5.4 167.2)">TÝR</text><path class="cls-1" d="M90.83,13.88l0-.18a6,6,0,0,1,1.56-2.86c.93-1,1.07-1.19,1.22-1.87.09-.45,0-.67-.23-.67s-.36.14-.46.63l-.08.38H91.72L91.79,9c.15-.76.42-1.69,1.72-1.69s1.55.84,1.33,1.87-.44,1.17-1.36,2.19a4.89,4.89,0,0,0-1,1.44h1.79l-.36,1.08Z"/><path class="cls-1" d="M98.68,9.16,98,12.22c-.19.9-.53,1.74-1.84,1.74s-1.57-.83-1.34-1.89L95.5,9c.25-1.12.76-1.7,1.82-1.7S98.91,8.09,98.68,9.16Zm-1.93-.29L96,12.3c-.1.44,0,.66.29.66s.39-.22.47-.59l.76-3.52c.06-.26,0-.54-.31-.54S96.81,8.55,96.75,8.87Z"/><text class="cls-8" transform="translate(91.61 166.87)">IV</text><path class="cls-1" d="M5.79,14.28,8.58,7h.67L6.46,14.28Z"/><path class="cls-1" d="M9.84,10.22c.25-1.15.28-1.38.33-1.61h1.21c0,.1,0,.25-.05.38a1.18,1.18,0,0,1,.95-.46A.67.67,0,0,1,13,9a1.38,1.38,0,0,1,1.08-.49c.71,0,1,.52.83,1.36l-.84,4H12.84L13.65,10c.06-.3,0-.46-.2-.46s-.37.19-.47.61l-.78,3.7H11L11.76,10c.08-.39,0-.47-.2-.47s-.38.19-.46.59l-.79,3.72H9.07Z"/><path class="cls-1" d="M15,14.28,17.76,7h.68l-2.8,7.25Z"/></svg>