<svg id="Layer_1" data-name="Layer 1" xmlns="http://www.w3.org/2000/svg" viewBox="0 0 104.94 174.18"><defs><style>.cls-1,.cls-10,.cls-11,.cls-2,.cls-4{fill:#ffeb3b;}.cls-2{font-size:14px;}.cls-11,.cls-2{font-family:Futura-CondensedExtraBold, Futura;font-weight:700;}.cls-3{letter-spacing:0.03em;}.cls-4{font-size:10px;}.cls-10,.cls-4{font-family:Futura-CondensedMedium, Futura;}.cls-5{letter-spacing:-0.01em;}.cls-6{letter-spacing:0em;}.cls-7{letter-spacing:0.01em;}.cls-8{letter-spacing:0.01em;}.cls-9{letter-spacing:0.04em;}.cls-10{font-size:7px;}.cls-11{font-size:8px;}</style></defs><title>runes</title><path class="cls-1" d="M77.07,63.94,52.94,39.39,28.88,63.94,47,82.39,28.88,100.5v12l24-24.25,24.21,24.25L77,100.64,58.76,82.41Zm-36.84-.06L52.86,51.14,65.49,63.88,52.86,76.63Z"/><text class="cls-2" transform="translate(28.77 134.79)">ŌÞA<tspan class="cls-3" x="25.4" y="0">L</tspan><tspan x="31.62" y="0">AN</tspan></text><text class="cls-4" transform="translate(38.16 149.92)">HERI<tspan class="cls-5" x="14.71" y="0">T</tspan><tspan class="cls-6" x="17.83" y="0">A</tspan><tspan x="21.88" y="0">GE</tspan></text><text class="cls-4" transform="translate(28.32 29.4)">SU<tspan class="cls-7" x="8.36" y="0">S</tspan><tspan class="cls-5" x="12.21" y="0">T</tspan><tspan x="15.34" y="0">AI</tspan><tspan class="cls-8" x="21.59" y="0">N</tspan><tspan x="26.41" y="0">ABILI</tspan><tspan class="cls-9" x="42.27" y="0">T</tspan><tspan x="45.99" y="0">Y</tspan></text><text class="cls-10" transform="translate(6.18 167.2)">TÝR</text><path class="cls-1" d="M91.89,13.88l0-.18a5.86,5.86,0,0,1,1.56-2.86c.93-1,1.07-1.19,1.22-1.87.09-.45.05-.67-.23-.67s-.36.14-.46.63l-.08.38H92.78L92.84,9c.16-.76.43-1.69,1.73-1.69s1.54.84,1.33,1.87-.45,1.17-1.37,2.19a5,5,0,0,0-1,1.44H95.3l-.36,1.08Z"/><path class="cls-1" d="M97,13.88l.32-1.52H95.61l.21-1,2-4h1.76l-.84,4h.42l-.29,1h-.35l-.32,1.52Zm.73-3.41c.16-.71.35-1.47.48-2h0c-.38.86-.85,2.08-1.24,2.91h.6Z"/><text class="cls-11" transform="translate(87.44 166.87)">VIII</text><path class="cls-1" d="M6.56,14.28,9.35,7H10l-2.8,7.25Z"/><path class="cls-1" d="M13.73,10.37l-.41,1.91C13.08,13.43,12.6,14,11.47,14s-1.6-.64-1.36-1.78l.43-2c.24-1.13.8-1.61,1.82-1.61S14,9.16,13.73,10.37Zm-1.91-.28-.49,2.32c-.08.32,0,.55.27.55s.37-.24.44-.57l.49-2.31c.06-.3.05-.55-.27-.55S11.89,9.77,11.82,10.09Z"/><path class="cls-1" d="M13.78,14.28,16.57,7h.68l-2.8,7.25Z"/></svg>