<svg id="Layer_1" data-name="Layer 1" xmlns="http://www.w3.org/2000/svg" viewBox="0 0 104.94 174.18"><defs><style>.cls-1,.cls-2,.cls-3,.cls-6,.cls-7{fill:#ffeb3b;}.cls-2{font-size:14px;}.cls-2,.cls-7{font-family:Futura-CondensedExtraBold, Futura;font-weight:700;}.cls-3{font-size:10px;}.cls-3,.cls-6{font-family:Futura-CondensedMedium, Futura;}.cls-4{letter-spacing:0em;}.cls-5{letter-spacing:0.01em;}.cls-6{font-size:7px;}.cls-7{font-size:8px;}</style></defs><title>runes</title><path class="cls-1" d="M38.26,40.85H28.71v73H38.3l.14-30.72L62.3,113.85H74.64L46.84,78.21,74.91,62.06Zm.18,30.6V52.64l16.72,9.5"/><text class="cls-2" transform="translate(32.47 136.18)">RAIÐŌ</text><text class="cls-3" transform="translate(37.45 151.31)">JOURNEY</text><text class="cls-3" transform="translate(34.3 30.79)">E<tspan class="cls-4" x="3.63" y="0">V</tspan><tspan x="7.34" y="0">O</tspan><tspan class="cls-5" x="12.12" y="0">L</tspan><tspan x="15.5" y="0">UTION</tspan></text><path class="cls-1" d="M98.27,8.68H96.73c-.12.46-.25,1-.33,1.34a1,1,0,0,1,.75-.29c.85,0,1.07.63.86,1.67l-.16.76c-.25,1.2-.53,2-1.92,2s-1.54-.74-1.37-1.61l0-.22h1.22l-.06.3c-.07.35,0,.56.27.56s.39-.28.51-.85l.2-1c.09-.44,0-.6-.25-.6s-.38.17-.49.56l-1.12-.1c.22-.69.67-2.55.93-3.62H98.6Z"/><text class="cls-6" transform="translate(5.13 167.42)">FREYR</text><text class="cls-7" transform="translate(93.81 167.09)">V</text><path class="cls-1" d="M5.51,14.49,8.3,7.25H9l-2.8,7.24Z"/><path class="cls-1" d="M9.53,10.62c.19-.91.31-1.45.36-1.79H11.1c0,.14-.06.43-.13.74a1.27,1.27,0,0,1,1.23-.82l-.33,1.49c-.77,0-1.07.29-1.26,1.17l-.56,2.68H8.79Z"/><path class="cls-1" d="M11.75,14.49l2.79-7.24h.68l-2.8,7.24Z"/></svg>