<svg id="Layer_1" data-name="Layer 1" xmlns="http://www.w3.org/2000/svg" viewBox="0 0 104.94 174.18"><defs><style>.cls-1,.cls-2,.cls-4,.cls-6,.cls-8{fill:#ffeb3b;}.cls-2{font-size:14px;}.cls-2,.cls-8{font-family:Futura-CondensedExtraBold, Futura;font-weight:700;}.cls-3{letter-spacing:-0.01em;}.cls-4{font-size:10px;}.cls-4,.cls-6{font-family:Futura-CondensedMedium, Futura;}.cls-5{letter-spacing:0.04em;}.cls-6{font-size:7px;}.cls-7{letter-spacing:-0.01em;}.cls-8{font-size:8px;}</style></defs><title>runes</title><path class="cls-1" d="M93.24,14.45l1.1-5.18a5.35,5.35,0,0,1-.59-.06l.19-.89a1.51,1.51,0,0,0,1-.39h1l-1.38,6.52Z"/><path class="cls-1" d="M98.27,9.54l0-.11c.07-.34,0-.58-.26-.58s-.38.23-.49.78l-.19.87a1.11,1.11,0,0,1,.89-.4c.86,0,1,.76.84,1.65l-.22,1c-.23,1.09-.63,1.75-1.86,1.75s-1.56-.85-1.34-1.85L96.24,10c.23-1.09.56-2.11,1.86-2.11s1.47.93,1.36,1.56l0,.11ZM97.57,13l.28-1.24c.07-.35.06-.6-.27-.6s-.41.23-.5.71L96.84,13c-.06.32,0,.56.28.56S97.48,13.39,97.57,13Z"/><polyline class="cls-1" points="34.09 115.25 77.72 81.45 77.72 73.45 41.99 73.45 77.2 45.99 77.2 45.99 72.19 39.57 28.95 73.13 28.95 81.45 32.92 81.45 32.97 81.49 33.02 81.45 64.41 81.45 28.95 108.83 33.97 115.25"/><text class="cls-2" transform="translate(30.18 136.24)">S<tspan class="cls-3" x="6.4" y="0">Ō</tspan><tspan x="15.24" y="0">WILŌ</tspan></text><text class="cls-4" transform="translate(46.81 151.37)">SUN</text><text class="cls-4" transform="translate(35.63 30.85)">AUTHORI<tspan class="cls-5" x="27.83" y="0">T</tspan><tspan x="31.54" y="0">Y</tspan></text><text class="cls-6" transform="translate(6.19 167.78)">HEIM<tspan class="cls-7" x="11.34" y="0">D</tspan><tspan x="14.55" y="0">ALLR</tspan></text><text class="cls-8" transform="translate(87.45 167.45)">VIII</text><path class="cls-1" d="M6.57,14.85,9.36,7.6H10l-2.8,7.25Z"/><path class="cls-1" d="M11.23,12.77l-.06.26c-.06.31,0,.56.22.56s.29-.13.35-.37a1,1,0,0,0-.43-1.08,1.71,1.71,0,0,1-.74-1.83,1.37,1.37,0,0,1,1.5-1.2c1.15,0,1.48.71,1.32,1.52l0,.19H12.2l0-.25c.07-.36,0-.53-.17-.53s-.26.12-.3.34,0,.43.36.78c.82.75,1,1.2.85,2a1.48,1.48,0,0,1-1.64,1.33c-1.31,0-1.52-.79-1.32-1.65l0-.11Z"/><path class="cls-1" d="M13.42,14.85,16.21,7.6h.68l-2.8,7.25Z"/></svg>