<svg id="Layer_1" data-name="Layer 1" xmlns="http://www.w3.org/2000/svg" viewBox="0 0 104.94 174.18"><defs><style>.cls-1,.cls-10,.cls-2,.cls-4,.cls-8,.cls-9{fill:#ffeb3b;}.cls-2{font-size:14px;}.cls-2,.cls-9{font-family:Futura-CondensedExtraBold, Futura;font-weight:700;}.cls-3{letter-spacing:-0.01em;}.cls-10,.cls-4{font-size:10px;}.cls-4,.cls-8{font-family:Futura-CondensedMedium, Futura;}.cls-5{letter-spacing:0.01em;}.cls-6{letter-spacing:-0.01em;}.cls-7{letter-spacing:0em;}.cls-8{font-size:7px;}.cls-9{font-size:8px;}.cls-10{font-family:MyriadPro-Regular, Myriad Pro;}.cls-11{font-size:9px;}</style></defs><title>runes</title><path class="cls-1" d="M77.29,77,41.87,56V41.35h-11v72h11V98l9.65-5.52,8.86-5.08h-.05ZM41.87,86.73V67.23L58.74,77Z"/><text class="cls-2" transform="translate(25.93 135.84)">ÞURI<tspan class="cls-3" x="29.41" y="0">S</tspan><tspan x="35.72" y="0">AZ</tspan></text><text class="cls-4" transform="translate(43.61 151.31)">THOR</text><text class="cls-4" transform="translate(33.62 30.79)">RESI<tspan class="cls-5" x="13.75" y="0">S</tspan><tspan class="cls-6" x="17.61" y="0">T</tspan><tspan x="20.73" y="0">A</tspan><tspan class="cls-7" x="24.81" y="0">N</tspan><tspan x="29.48" y="0">CE</tspan></text><path class="cls-1" d="M95.61,9.22,95.67,9c.16-.73.46-1.46,1.62-1.46s1.55.72,1.31,1.86a1.34,1.34,0,0,1-.95,1.2h0c.46.26.68.71.48,1.7s-.55,1.88-1.89,1.88-1.54-.75-1.37-1.67l0-.17h1.22l-.06.26c-.07.38,0,.64.26.64s.38-.27.52-.9c.22-1,.07-1.23-.46-1.23h-.25l.22-1h.2c.57,0,.72-.15.85-.75s.12-.82-.15-.82-.31.16-.38.47l-.06.26Z"/><text class="cls-8" transform="translate(5.4 167.42)">FREYR</text><text class="cls-9" transform="translate(91.35 167.09)">III</text><text class="cls-10" transform="translate(5.79 14.09)">/<tspan class="cls-11" x="3.43" y="0">θ</tspan><tspan x="8.24" y="0">/</tspan></text></svg>