<svg id="Layer_1" data-name="Layer 1" xmlns="http://www.w3.org/2000/svg" viewBox="0 0 104.94 174.18"><defs><style>.cls-1,.cls-2,.cls-4,.cls-8,.cls-9{fill:#ffeb3b;}.cls-2{font-size:14px;}.cls-2,.cls-9{font-family:Futura-CondensedExtraBold, Futura;font-weight:700;}.cls-3{letter-spacing:-0.01em;}.cls-4{font-size:10px;}.cls-4,.cls-8{font-family:Futura-CondensedMedium, Futura;}.cls-5{letter-spacing:-0.01em;}.cls-6{letter-spacing:0em;}.cls-7{letter-spacing:0.04em;}.cls-8{font-size:7px;}.cls-9{font-size:8px;}</style></defs><title>runes</title><polygon class="cls-1" points="37.41 39.68 28.17 39.68 28.17 112.68 37.28 112.68 37.28 50.07 67.05 67.26 67.05 112.64 76.17 112.68 76.17 61.81 37.41 39.68"/><text class="cls-2" transform="translate(35.28 135.01)">Ū<tspan class="cls-3" x="8.63" y="0">R</tspan><tspan x="17" y="0">UZ</tspan></text><text class="cls-4" transform="translate(39.11 150.13)">AU<tspan class="cls-5" x="8.71" y="0">R</tspan><tspan x="12.83" y="0">OCH</tspan></text><text class="cls-4" transform="translate(30.79 29.61)">INVI<tspan class="cls-6" x="12.73" y="0">N</tspan><tspan x="17.4" y="0">CIBILI</tspan><tspan class="cls-7" x="35.17" y="0">T</tspan><tspan x="38.89" y="0">Y</tspan></text><text class="cls-8" transform="translate(4.98 167.42)">FREYR</text><path class="cls-1" d="M94.27,14.09l0-.17a6,6,0,0,1,1.56-2.86c.93-1,1.08-1.19,1.22-1.88.1-.45.06-.67-.22-.67s-.36.14-.46.63l-.08.38H95.17l.06-.31c.16-.76.43-1.69,1.73-1.69s1.54.84,1.33,1.87-.45,1.16-1.37,2.18a4.88,4.88,0,0,0-1,1.45h1.79l-.36,1.07Z"/><text class="cls-9" transform="translate(93.41 167.09)">II</text><path class="cls-1" d="M5.37,14.49,8.15,7.25h.68L6,14.49Z"/><path class="cls-1" d="M12.21,12.42c-.19.88-.3,1.38-.34,1.67H10.63a4.22,4.22,0,0,1,.06-.42,1.08,1.08,0,0,1-1,.51c-.45,0-1-.26-.75-1.5l.82-3.85H11l-.79,3.74c-.08.37,0,.54.22.54s.41-.23.51-.71l.75-3.57H13Z"/><path class="cls-1" d="M12.75,14.49l2.79-7.24h.68l-2.8,7.24Z"/></svg>