<svg id="Layer_1" data-name="Layer 1" xmlns="http://www.w3.org/2000/svg" viewBox="0 0 688.92 636.75"><defs><style>.cls-1{fill:#222222;}</style></defs><title>valknut</title><path class="cls-1" d="M19.5,654.33H569.11L480.4,502.19H400L444.41,583H145.66l43.2-80.84H105.78Zm.15-161.76H195.59l40.14-70.71h-92L293.6,162.48l46.47,77.25,41.67-71.86L293.6,17.58Zm140.13-80.12h81.54l52.28-88.63,52.68,88.63H427.5L293.6,181.81Zm2.36,161.26H428.9l-40-71.52H284.52l50.77-89.74L293.6,342.06ZM300.6,492.57h266L433.38,260l-41.67,70.18L443,421.86H340.35Zm45.33-241.68,40.28,69.61,47.17-78.76L583.6,502.19H493l41.4,71.52h174L433.38,98.1Z" transform="translate(-19.5 -17.58)"/></svg>