<svg id="Layer_1" data-name="Layer 1" xmlns="http://www.w3.org/2000/svg" viewBox="0 0 538.08 758.48"><defs><style>.cls-1{opacity:0.8;}.cls-2{fill:none;stroke:#fff;}.cls-2,.cls-3{stroke-miterlimit:10;}.cls-3,.cls-4{fill:#f8e62d;}.cls-3{stroke:#000;stroke-width:0.25px;opacity:0.75;}.cls-4{opacity:0.2;}</style></defs><title>DSC05495</title><g class="cls-1"><path class="cls-2" d="M156.53,479.35H363.76L330.31,422H300l16.75,30.49H204.1L220.38,422H189.06Zm.06-61h66.33l15.14-26.66H203.38l56.5-97.81L277.4,323l15.71-27.09-33.23-56.67Zm52.83-30.21h30.75l19.71-33.42,19.86,33.42h30.63l-50.49-87Zm.89,60.8H310.89l-15.08-27H256.46l19.14-33.83-15.72-26.54Zm52.21-30.59h100.3l-50.24-87.71-15.71,26.46,19.34,34.59h-38.7Zm17.09-91.13,15.19,26.25,17.78-29.7L369.23,422H335.06l15.61,27h65.62L312.58,269.62Z" transform="translate(-19.7 -46.26)"/><polygon class="cls-2" points="261.72 120.62 249.72 114.04 249.72 110.58 261.72 117.16 261.72 112.43 249.72 105.85 249.72 106.13 245.72 106.13 245.72 136.12 249.72 136.12 249.72 118.78 261.72 125.35 261.72 120.62"/><path class="cls-2" d="M333.67,180.76h-.05l-6.21-6,4-1.13h0l8.85-2.31-12.76-12.71v.14l-4.25-1.14-8,29.93,4.28,1.15v.1l17.58-4.68ZM326,163.06l6.23,6.08-8.06,2.21-.19-.07-.17,0Zm-5.64,21.05,2.19-8.18.22.07.15,0,5.82,5.93Z" transform="translate(-19.7 -46.26)"/><polygon class="cls-2" points="353.11 145.43 362.19 168.15 364.45 164.22 358.11 148.2 375.16 145.69 377.33 141.93 353.11 145.43"/><path class="cls-2" d="M426.62,229.08,429,212.54l-3.27,3.27-18.93,18.93,16.54-2.4L421,248.88l22.19-22.2Zm-11,1.13,8.91-8.91-1,7.92Zm9.9,9.9,1-7.92,7.92-1Z" transform="translate(-19.7 -46.26)"/><polygon class="cls-2" points="456.25 227.03 449.58 223.13 449.56 215.43 447.82 212.42 420.99 227.92 422.49 230.51 445.83 217.04 445.98 225.02 452.82 229.16 429.48 242.63 430.98 245.23 457.82 229.74 456.25 227.03"/><polygon class="cls-2" points="470.22 287.33 460.36 276.52 463.76 275.61 473.63 286.42 478.27 285.18 468.4 274.37 474.75 272.67 473.72 268.81 443.79 276.82 444.82 280.69 455.71 277.77 465.58 288.58 470.22 287.33"/><polygon class="cls-2" points="481.53 346.03 483.78 342.38 472.53 336.31 483.78 330.23 481.53 326.58 468.03 333.88 454.52 326.58 452.27 330.23 463.52 336.31 452.27 342.38 454.52 346.03 468.03 338.74 481.53 346.03"/><path class="cls-2" d="M493.67,448.56l-12.43-3.34,7.09-12.58,9,2.4.78-2.9-29.93-8-.78,2.9,12.25,3.28-7.09,12.59-8.78-2.35-.78,2.89,29.94,8Zm-10.4-17.28,1.4.37-7.09,12.59-1.39-.37Z" transform="translate(-19.7 -46.26)"/><rect class="cls-2" x="457.1" y="474" width="4" height="30.99" transform="translate(-214.06 596.09) rotate(-60)"/><polyline class="cls-2" points="416.25 483.27 398.8 485.35 401.1 487.65 413.4 486.22 411.97 498.52 414.17 500.72"/><polyline class="cls-2" points="394.34 493.36 396.17 475.65 398.47 477.95 397.04 490.26 409.35 488.83 412.05 491.53"/><polygon class="cls-2" points="355.96 529.11 371.99 533.37 371.89 533.27 375.6 531.13 360.1 504.3 356.64 506.3 369.28 528.18 352.98 523.94 355.96 529.11"/><path class="cls-2" d="M325.75,606.28l5.54-5.48,7.51,2,3.77-1-8-29.93-3.86,1,5,18.55-5,5.28-.23,0h0l.26.07.11-.07L323.19,595l-5-18.6-3,.64,8,29.93Zm11-10.76.92,3.45-3.44-.93Zm-9.2,4.18-2.47,2.47-.9-3.36Z" transform="translate(-19.7 -46.26)"/><polygon class="cls-2" points="243.35 546.9 251.72 551.57 251.72 565.93 255.72 565.93 255.72 554 261.49 557.45 263.7 553.79 255.72 549.13 255.72 534.95 251.72 534.95 251.72 546.69 245.61 543.25 243.35 546.9"/><path class="cls-2" d="M217.17,585.57h0l-10.68,6,7.24,13L226.5,597l-6.2-10.56h0l10.44-6.23.94-3.51-12.38,7.58-6.93-12.76-.94,3.52ZM222.94,596l-8.31,4.84-4.78-8.34,8.31-4.84Z" transform="translate(-19.7 -46.26)"/><polygon class="cls-2" points="142.73 526.44 132.07 526.74 129.96 530.4 140.46 529.88 144.39 538.38 147.43 540.13 162.92 513.29 159.89 511.54 150.57 512.37 145.78 502.99 143.67 506.66 148.74 516.04 158.38 515.16 146.79 535.23 142.73 526.44"/><path class="cls-2" d="M67.52,333.13l0,0L66.27,328l-1.11-4.66h0l-2.26-8.83-13.15,13.8.09.1-1.07,4,30.9,8.29,1.07-4-.07,0-13.1-3.57Zm-5-1.09-8.23-2.23,6.26-6.48,2.09,8.55-.12.09Z" transform="translate(-19.7 -46.26)"/><path class="cls-2" d="M140.7,529.59h0L131.24,539l2.1-16.72-3.78-3.78-2.3,19.33-13.5-3.7,4.87,17.56.16-.13,3,3,21.91-21.91-1.46-1.46Zm-12.42,12.85-6,6-2.33-8.4,8.18,2.15.09.13Z" transform="translate(-19.7 -46.26)"/><polygon class="cls-2" points="61.74 435.33 69.1 448.08 51.2 441.41 51.18 441.43 50.46 444.4 71.57 452.74 74.33 451.14 73.66 449.98 73.67 449.96 73.64 449.95 66.7 437.93 84.51 445.27 84.54 445.25 85.13 441.88 63.96 433.18 64.34 433.83 61.74 435.33"/><polygon class="cls-2" points="40.76 379.3 31.39 395.3 47.51 404.51 46.28 399.93 38.63 395.74 62.1 389.44 61.07 385.58 37.37 391.93 41.96 383.79 40.76 379.3"/><polygon class="cls-2" points="23.82 342.18 23.82 346.03 54.81 346.03 54.81 343.03 27.74 343.03 35.48 329.03 54.81 329.03 54.81 326.04 33.3 326.04 23.82 342.18"/><path class="cls-2" d="M92.51,266.56l-16.17,10-5.52-3.19-1.5,2.6,26.83,15.49,1.5-2.59-5.73-3.32.26-5.18.19-4.68-.05.07Zm-4.77,16.61L80.5,279,88,274.45Z" transform="translate(-19.7 -46.26)"/><polygon class="cls-2" points="116 195.12 115.81 195.29 97.84 177.33 102.48 175.98 101.39 171.65 89.61 174.75 107.55 192.69 103.14 193.82 104.21 198.16 116 195.12"/><polygon class="cls-2" points="89.67 174.68 89.67 174.68 89.68 174.72 89.67 174.68"/><polygon class="cls-2" points="151.05 129.84 146.7 132.35 144.4 140.68 141.37 135.43 137.04 137.93 140.1 143.24 131.25 141.27 126.97 143.75 142.41 147.24 152.53 164.77 156.86 162.27 146.74 144.74 151.05 129.84"/><path class="cls-2" d="M225.23,160l-.75-2.77-8,10.59-12.24-5.16.74,2.78,10.1,4.34-7,8.94-.06,0-.05,0L218.61,183,212,191.76l.74,2.77,8-10.58L233,189.1l-.74-2.77L222,182l6.92-8.93h0l0,0-10.5-4.25Zm-5.41,21.14-8.23-3.35,5.46-7,8.23,3.35Z" transform="translate(-19.7 -46.26)"/><path class="cls-2" d="M273.42,201A181.26,181.26,0,1,0,454.67,382.29,181.25,181.25,0,0,0,273.42,201Zm0,358.28a177,177,0,1,1,177-177A176.32,176.32,0,0,1,273.42,559.32Z" transform="translate(-19.7 -46.26)"/><path class="cls-2" d="M273.42,129.07C133.57,129.07,20.2,242.44,20.2,382.29S133.57,635.51,273.42,635.51,526.64,522.14,526.64,382.29,413.27,129.07,273.42,129.07Zm0,502.44c-137.65,0-249.23-111.58-249.23-249.22S135.77,133.07,273.42,133.07,522.64,244.65,522.64,382.29,411.06,631.51,273.42,631.51Z" transform="translate(-19.7 -46.26)"/></g><path class="cls-3" d="M173.68,383.11l45.66-24.43,28.93,3.21,5.15,5.15,5.46,31.08,21.72-9a162.24,162.24,0,0,1-1.14-18.05s-23.79-75.23,1.29-100.95c0,0-1.93-38.58,13.5-54.66,0,0-9.65-50.79,35.36-61.73,0,0,29.58,1.29,43.09-8.35l-4.5-23.8L363,107.82l-1.84-26.71-4.5-18.64S365,48.32,375.27,46.39c0,0,33.44-.64,46.94,12.86l-.64,20.58s7.07,2.57.64,24.43l5.84,23.15,20.52-1.28L482,140.91s36,12.86,37.29,18c0,0,16.72,16.72,15.44,46.3,0,0,18,34.72,11.57,56.58,0,0,15.43,30.87,10.29,57.87l-25.72,61-11,38.05s-22.39-1.29-32.68-12.86,2.58-25.19,2.58-25.19L486.51,373l10.29-10.29,15.43-1.28,4.5-15.43s-18-22.51-7.07-72c0,0-18-24.44-18.65-29.58,0,0-21.86,25.08-43.72,35.37l4.5,45.65,19.93,59.8s22.51,51.44,18.65,100.95l12.1,32.15s5.9-1.92,25.84,27.65l-.65,19.29s-3.86,61.73-7.07,74.59l5.79,6.43,6.43,33.44L527,692H476.86V675.9s20.58-11.57,22.51-35.36c0,0-27-55.3-28.29-75.24l-2.57-27s-21.87-26.37-21.22-35.37l-6.43-1.28-28.3-65.59s-15.43-25.72-18-33.44l-11.58.64s-6.43,39.87-19.29,57.23c0,0,1.93,19.29-21.86,51.44,0,0,3.86,19.29,0,32.8,0,0,19.29,27.65-11.57,72L320.61,636l4.5,46.29-14.79,5.79-43.08-.64S261.45,671.4,277.53,665c0,0,15.43-16.07,17.36-32.79,0,0-7.71-64.95-2.57-79.09l10.29-27.65,2.57-30.22s-9-39.23,3.22-87.45,19.93-52.09,19.93-52.09l3.21-28.93s-1.93-43.09,9.65-54.66l-3.86-26.36s-8.36,25.72-18,28.29c0,0,9,33.44-16.72,64.94L302,369.18l11.58,11.47-8.36,27.12s-8.36-1.29-12.86,3.85c0,0-6.71-3.2-9.16-7.77l-21.63,11.28,6.15,36.6-36.77,23-6.43,3.86-34.72-8-5.7-7.93-14.88-72.44Z" transform="translate(-19.7 -46.26)"/><path class="cls-4" d="M524.45,696.07H474.29s12.86,12.22-3.86,16.07c0,0-35.36,7.08-19.29,28.94,0,0,17.37,1.93-9.64,14.79,0,0-34.72,21.22-34.72,25.72,0,0-4.5-13.5-21.22-14.15,0,0-31.51-28.93-54.66-28.61,0,0-10.29-8.68-4.5-15.75,0,0-10.93-14.15-25.08-16.08s-1.93-9,12.86-10.93c0,0,10.93.41,3.86-3.45H265.31s-6.43,2.81,7.72,11.81c0,0-12.22,19.93-5.14,25.08,0,0-2.58,5.78,41.79,21.86,0,0-10.93,19.29,17.36,30.22,0,0-9.64,1.93,19.29,23.15h182S525.73,779,513.52,775.8l-21.22-.64-9.65,10.93s20.58,4.5,14.15,9.65-29.58-2.58-29.58-2.58S491,779,494.87,767.44c0,0,5.14-16.71-2.57-21.86,0,0,.64-12.22,11.57-14.79,0,0,10.93-1.93-2.57-22.5C501.3,708.29,501.94,696.07,524.45,696.07Z" transform="translate(-19.7 -46.26)"/><path class="cls-4" d="M289.1,804.74H241.52s12.22-9.65,36.65-30.22c0,0,19.29-3.91,34.08,4.5l-5.14,2.57s13.5,5.14-18,10.29C289.1,791.88,278.17,791.88,289.1,804.74Z" transform="translate(-19.7 -46.26)"/></svg>